<?xml version="1.0" encoding="UTF-8" standalone="no"?><!DOCTYPE svg PUBLIC "-//W3C//DTD SVG 1.1//EN" "http://www.w3.org/Graphics/SVG/1.1/DTD/svg11.dtd"><svg width="100%" height="100%" viewBox="0 0 1392 2399" version="1.1" xmlns="http://www.w3.org/2000/svg" xmlns:xlink="http://www.w3.org/1999/xlink" xml:space="preserve" xmlns:serif="http://www.serif.com/" style="fill-rule:evenodd;clip-rule:evenodd;stroke-linecap:round;stroke-linejoin:round;stroke-miterlimit:1.5;"><g><path d="M370.882,722.656l83.062,-76.042l192.446,56.154l-76.043,80.137l-199.465,-60.249Z" style="fill:none;stroke:#000;stroke-width:4.17px;"/><ellipse cx="517.41" cy="646.614" rx="9.652" ry="9.944" style="fill:none;stroke:#000;stroke-width:4.17px;"/><ellipse cx="619.775" cy="674.106" rx="9.652" ry="9.944" style="fill:none;stroke:#000;stroke-width:4.17px;"/><ellipse cx="350.184" cy="174.577" rx="11.958" ry="22.996" style="fill:none;stroke:#000;stroke-width:4.17px;"/><ellipse cx="358.002" cy="308.411" rx="9.658" ry="15.177" style="fill:none;stroke:#000;stroke-width:4.17px;"/><path d="M291.775,244.484c-6.21,-3.785 -18.631,-11.353 -22.995,-20.696c-5.979,-12.801 -13.108,-37.253 -12.878,-56.11c0.23,-18.856 10.655,-44.918 14.257,-57.029c1.643,-5.521 5.454,-12.265 7.359,-15.636" style="fill:none;stroke:#000;stroke-width:4.17px;"/><path d="M823.17,1880.13c95.688,-138.82 191.376,-277.64 287.064,-416.461" style="fill:none;stroke:#000;stroke-width:4.17px;"/><path d="M697.035,1819.24c95.326,-134.109 190.652,-268.217 285.977,-402.326" style="fill:none;stroke:#000;stroke-width:4.17px;"/><path d="M616.57,1690.93c80.465,-106.562 160.93,-213.124 241.395,-319.686" style="fill:none;stroke:#000;stroke-width:4.17px;"/><path d="M692.686,1376.68c13.411,-18.848 26.821,-37.695 40.232,-56.543" style="fill:none;stroke:#000;stroke-width:4.17px;"/><ellipse cx="769.31" cy="518.151" rx="11.259" ry="16.085" style="fill:none;stroke:#000;stroke-width:4.17px;"/><ellipse cx="864.21" cy="543.887" rx="11.259" ry="16.085" style="fill:none;stroke:#000;stroke-width:4.17px;"/><path d="M597.204,429.685l412.573,87.662l-412.573,-87.662Z" style="fill:none;stroke:#000;stroke-width:4.17px;"/><path d="M1310.11,374.801c7.772,1.295 15.545,2.59 23.317,3.886" style="fill:none;stroke:#000;stroke-width:4.17px;"/><path d="M625.941,239.263c182.333,37.817 364.665,75.634 546.997,113.451" style="fill:none;stroke:#000;stroke-width:4.17px;"/><path d="M35.725,680.912c196.289,-147.667 588.866,-443 588.866,-443c-0,-0 -2.701,-42.319 -4.052,-63.479" style="fill:none;stroke:#000;stroke-width:4.17px;"/><path d="M1315.8,310.814c24.623,5.171 73.868,15.513 73.868,15.513c-0,-0 -92.089,95.043 -138.133,142.565" style="fill:none;stroke:#000;stroke-width:4.17px;"/><path d="M1389.67,326.327c-1.231,23.145 -3.694,69.435 -3.694,69.435c0,0 -97.013,113.264 -145.519,169.897" style="fill:none;stroke:#000;stroke-width:4.17px;"/><path d="M1299.45,278.461c11.604,2.886 12.792,38.337 2.65,79.116c-10.142,40.779 -27.797,71.544 -39.402,68.658c-11.605,-2.886 -12.792,-38.337 -2.65,-79.116c10.142,-40.779 27.797,-71.544 39.402,-68.658Z" style="fill:none;stroke:#000;stroke-width:4.17px;"/><path d="M1288.02,261.238c22.359,5.561 30.073,52.05 17.215,103.75c-12.858,51.701 -41.45,89.161 -63.809,83.6c-22.359,-5.561 -30.073,-52.05 -17.215,-103.75c12.858,-51.701 41.45,-89.161 63.809,-83.6Z" style="fill:none;stroke:#000;stroke-width:4.17px;"/><path d="M1278.51,256.37c30.581,7.605 44.633,57.111 31.359,110.483c-13.274,53.372 -48.878,90.529 -79.459,82.923c-30.582,-7.605 -44.633,-57.112 -31.36,-110.484c13.274,-53.372 48.879,-90.528 79.46,-82.922Z" style="fill:none;stroke:#000;stroke-width:4.17px;"/><path d="M501.696,499.567l436.5,92.63l196.679,-200.486l-390.82,-81.209l-242.359,189.065Z" style="fill:none;stroke:#000;stroke-width:4.17px;"/><path d="M335.408,1651.13c59.347,-78.123 118.695,-156.246 178.043,-234.369" style="fill:none;stroke:#000;stroke-width:4.17px;"/><path d="M1189.16,1493.25c-159.586,-60.109 -319.172,-120.217 -478.758,-180.326" style="fill:none;stroke:#000;stroke-width:4.17px;"/><path d="M177.047,1681.31c123.894,-135.282 247.787,-270.563 371.681,-405.845" style="fill:none;stroke:#000;stroke-width:4.17px;"/><path d="M1199.39,1476.92c-161.93,-61.372 -323.86,-122.744 -485.79,-184.116" style="fill:none;stroke:#000;stroke-width:4.17px;"/><path d="M1221.67,1441.91c-166.17,-63.753 -332.341,-127.506 -498.511,-191.259" style="fill:none;stroke:#000;stroke-width:4.17px;"/><path d="M142.931,1748.09l-53.633,122.679l4.594,62.476l104.332,54.621c-26.443,13.076 -54.395,15.444 -78.433,4.08c-51.575,-24.38 -65.736,-102.794 -31.603,-174.998c13.693,-28.969 33.093,-52.564 54.743,-68.858Z" style="fill:none;stroke:#000;stroke-width:4.17px;"/><path d="M254.049,1728.63l132.474,-46.009" style="fill:none;stroke:#000;stroke-width:4.17px;"/><path d="M710.965,1945.98l111.85,-64.254" style="fill:none;stroke:#000;stroke-width:4.17px;"/><path d="M51.078,706.238c251.26,76.54 753.779,229.62 753.779,229.62c-0,-0 76.74,-16.831 98.58,-34.864c20.614,-17.021 15.989,-52.279 32.46,-73.334c38.871,-49.691 163.699,-177.124 200.767,-224.812c13.301,-17.111 21.639,-61.312 21.639,-61.312c0,0 19.636,-263.281 38.471,-328.2c8.964,-30.897 74.536,-61.312 74.536,-61.312l-10.82,87.76" style="fill:none;stroke:#000;stroke-width:4.17px;"/><path d="M51.078,706.238c-5.328,-5.233 -15.984,-15.698 -16.809,-25.979c-1.68,-20.957 6.726,-99.764 6.726,-99.764l229.795,-160.297" style="fill:none;stroke:#000;stroke-width:4.17px;"/><path d="M270.79,420.198c7.778,-10.572 23.335,-31.718 25.782,-50.442c3.737,-28.585 1.308,-92.292 -3.363,-121.063c-3.053,-18.807 -22.996,-32.584 -24.661,-51.564c-1.868,-21.298 11.957,-52.124 13.452,-76.225c1.414,-22.798 -16.945,-49.235 -4.484,-68.378c12.891,-19.803 81.83,-50.443 81.83,-50.443c-0,0 42.596,228.488 59.41,275.755c4.716,13.256 29.018,14.388 41.475,7.846c33.442,-17.561 117.264,-81.331 159.175,-113.216" style="fill:none;stroke:#000;stroke-width:4.17px;"/><path d="M1182.44,291.121c-187.679,-39.551 -375.358,-79.102 -563.037,-118.653" style="fill:none;stroke:#000;stroke-width:4.17px;"/><path d="M1260.49,239.784c-0.713,5.346 -1.427,10.692 -2.14,16.038" style="fill:none;stroke:#000;stroke-width:4.17px;"/><path d="M1201.18,781.961c-9.813,-8.145 -29.44,-24.434 -32.445,-41.819c-4.447,-25.716 1.612,-75.166 5.768,-112.477c5.527,-49.63 27.398,-185.299 27.398,-185.299l-27.398,185.299c-0,-0 -175.446,178.81 -263.169,268.215" style="fill:none;stroke:#000;stroke-width:4.17px;"/><path d="M1201.18,781.961c16.525,-44.402 49.576,-133.205 56.002,-163.334c1.716,-8.041 -17.138,-9.225 -17.441,-17.441c-1.038,-28.238 7.129,-110.737 11.213,-151.987" style="fill:none;stroke:#000;stroke-width:4.17px;"/><path d="M644.136,890.094l127.432,38.385l-217.971,904.219l-126.231,-61.345l216.77,-881.259Z" style="fill:none;stroke:#000;stroke-width:4.17px;"/><path d="M553.597,1832.7c12.423,-14.427 37.269,-43.279 37.269,-43.279" style="fill:none;stroke:#000;stroke-width:4.17px;"/><path d="M590.866,1789.42l207.98,-853.561" style="fill:none;stroke:#000;stroke-width:4.17px;"/><path d="M933.939,2136.3c11.841,8.138 -2.293,60.809 -31.543,117.547c-29.25,56.737 -62.61,96.193 -74.451,88.054c-11.841,-8.139 2.293,-60.81 31.543,-117.547c29.249,-56.737 62.61,-96.193 74.451,-88.054Z" style="fill:none;stroke:#000;stroke-width:4.17px;"/><path d="M942.707,2117.52c17.106,11.758 3.483,74.667 -30.402,140.395c-33.885,65.729 -75.284,109.547 -92.39,97.789c-17.106,-11.757 -3.483,-74.666 30.402,-140.395c33.886,-65.728 75.284,-109.546 92.39,-97.789Z" style="fill:none;stroke:#000;stroke-width:4.17px;"/><path d="M929.511,2071.75c35.096,24.122 27.25,114.194 -17.51,201.015c-44.759,86.822 -109.591,137.726 -144.686,113.604c-35.095,-24.122 -27.249,-114.194 17.51,-201.016c44.759,-86.821 109.591,-137.725 144.686,-113.603Z" style="fill:none;stroke:#000;stroke-width:4.17px;"/><ellipse cx="898.738" cy="2271.82" rx="47.073" ry="127.009" style="fill:none;"/><path d="M94.796,1932.58l-5.297,-59.594l78.135,-185.404l635.671,304.592l-67.54,215.863l-10.595,59.595l-630.374,-335.052Z" style="fill:none;stroke:#000;stroke-width:4.17px;"/><path d="M803.305,1992.17c33.874,-21.02 101.623,-63.059 101.623,-63.059l325.194,-499.405l51.735,17.949c0,-0 -249.878,411.771 -374.817,617.657" style="fill:none;stroke:#000;stroke-width:4.17px;"/><path d="M726.385,2266.5c59.514,-112.462 119.029,-224.925 178.543,-337.387" style="fill:none;stroke:#000;stroke-width:4.17px;"/><path d="M841.427,2049.11c17.292,5.163 51.878,15.491 66.599,16.249c8.216,0.423 15.044,-11.422 21.73,-11.701c6.686,-0.279 14.4,4.298 18.387,10.029c5.944,8.544 9.513,53.953 17.273,41.232c55.875,-91.593 317.977,-590.785 317.977,-590.785c0,-0 -1.255,-42.671 -1.882,-64.006" style="fill:none;stroke:#000;stroke-width:4.17px;"/><path d="M89.499,1872.98c215.422,111.684 430.844,223.368 646.266,335.051" style="fill:none;stroke:#000;stroke-width:4.17px;"/><path d="M637.383,2157.03c23.876,-69.111 47.751,-138.223 71.626,-207.335" style="fill:none;stroke:#000;stroke-width:4.17px;"/><path d="M177.25,1918.48c25.295,-62.943 50.589,-125.885 75.883,-188.828" style="fill:none;stroke:#000;stroke-width:4.17px;"/><path d="M439.971,1706.17l-134.064,-64.618l134.064,64.618Z" style="fill:none;stroke:#000;stroke-width:4.17px;"/><path d="M305.907,1641.55l-138.767,45.864" style="fill:none;stroke:#000;stroke-width:4.17px;"/><path d="M910.367,1922.55l-310.462,-144.586l310.462,144.586Z" style="fill:none;stroke:#000;stroke-width:4.17px;"/><path d="M198.133,1988.14c-16.592,7.021 -34.75,10.893 -53.777,10.893c-78.522,-0 -142.273,-65.949 -142.273,-147.179c0,-81.231 63.751,-147.179 142.273,-147.179c5.261,-0 10.456,0.296 15.562,0.872l-68.789,166.335l3.771,62.225l103.233,54.033Z" style="fill:none;stroke:#000;stroke-width:4.17px;"/><path d="M306.046,1640.08c73.316,-92.577 146.632,-185.155 219.948,-277.732" style="fill:none;stroke:#000;stroke-width:4.17px;"/></g></svg>
