<?xml version="1.0" encoding="UTF-8" standalone="no"?><!DOCTYPE svg PUBLIC "-//W3C//DTD SVG 1.1//EN" "http://www.w3.org/Graphics/SVG/1.1/DTD/svg11.dtd"><svg width="100%" height="100%" viewBox="0 0 1289 2780" version="1.1" xmlns="http://www.w3.org/2000/svg" xmlns:xlink="http://www.w3.org/1999/xlink" xml:space="preserve" xmlns:serif="http://www.serif.com/" style="fill-rule:evenodd;clip-rule:evenodd;stroke-linecap:round;stroke-linejoin:round;stroke-miterlimit:1.5;"><g><path d="M955.403,972.862c25.432,5.794 50.864,11.589 76.296,17.384" style="fill:none;stroke:#000;stroke-width:5px;"/><path d="M1032.99,927.47c-18.672,-3.97 -37.343,-7.94 -56.015,-11.911" style="fill:none;stroke:#000;stroke-width:5px;"/><path d="M1078.87,761.528c15.126,5.38 17.566,37.419 5.445,71.501c-12.122,34.083 -34.244,57.386 -49.371,52.006c-15.126,-5.38 -17.566,-37.418 -5.444,-71.501c12.121,-34.082 34.243,-57.385 49.37,-52.006Z" style="fill:none;stroke:#000;stroke-width:5px;"/><path d="M1068.66,810.369c4.628,1.646 5.369,11.463 1.654,21.908c-3.714,10.445 -10.488,17.589 -15.116,15.943c-4.629,-1.646 -5.37,-11.462 -1.655,-21.908c3.715,-10.445 10.488,-17.589 15.117,-15.943Z" style="fill:none;stroke:#000;stroke-width:5px;"/><path d="M555.269,898.629l1.048,-4.375c0.45,-1.881 2.344,-3.042 4.225,-2.592l56.716,13.586c1.882,0.451 3.043,2.344 2.592,4.225l-1.633,6.817c-0.45,1.882 -2.343,3.043 -4.225,2.593l-50.832,-12.177l-7.891,-8.077Z" style="fill:none;stroke:#000;stroke-width:5px;"/><path d="M1076.93,1143.86c-5.697,-4.416 -17.09,-13.247 -21.896,-22.559c-5.308,-10.284 -9.368,-25.696 -9.953,-39.147c-1.216,-27.978 1.364,-95.14 2.654,-128.72" style="fill:none;stroke:#000;stroke-width:5px;"/><path d="M1048.31,953.429c0.107,-22.141 0.215,-44.281 0.322,-66.422" style="fill:none;stroke:#000;stroke-width:5px;"/><path d="M942.036,971.597c7.257,1.161 21.77,3.484 23.267,-4.199c28.789,-147.789 127.141,-732.997 149.467,-882.536c1.048,-7.019 -9.991,-12.138 -15.511,-14.698" style="fill:none;stroke:#000;stroke-width:5px;"/><path d="M423.312,886.642c-1.063,6.559 -2.127,13.117 -3.191,19.675" style="fill:none;stroke:#000;stroke-width:5px;"/><path d="M738.396,924.929c-3.368,20.917 -6.736,41.833 -10.103,62.749" style="fill:none;stroke:#000;stroke-width:5px;"/><path d="M440.815,865.564c0.246,-1.029 -0.389,-2.064 -1.417,-2.31l-24.201,-5.797c-1.029,-0.247 -2.064,0.388 -2.31,1.417l-0.893,3.728c-0.247,1.028 0.389,2.063 1.417,2.31l24.201,5.797c1.028,0.246 2.064,-0.389 2.31,-1.418l0.893,-3.727Z" style="fill:none;stroke:#000;stroke-width:5px;"/><path d="M474.65,873.759c0.247,-1.029 -0.389,-2.064 -1.417,-2.311l-24.201,-5.797c-1.028,-0.246 -2.064,0.389 -2.31,1.418l-0.893,3.727c-0.246,1.029 0.389,2.064 1.417,2.31l24.201,5.797c1.029,0.247 2.064,-0.388 2.31,-1.417l0.893,-3.727Z" style="fill:none;stroke:#000;stroke-width:5px;"/><path d="M509.014,881.953c0.247,-1.029 -0.389,-2.064 -1.417,-2.31l-24.201,-5.797c-1.028,-0.247 -2.064,0.388 -2.31,1.417l-0.893,3.728c-0.246,1.028 0.389,2.063 1.417,2.31l24.201,5.797c1.029,0.246 2.064,-0.389 2.31,-1.418l0.893,-3.727Z" style="fill:none;stroke:#000;stroke-width:5px;"/><path d="M543.114,890.148c0.246,-1.029 -0.389,-2.064 -1.417,-2.311l-24.201,-5.797c-1.029,-0.246 -2.064,0.389 -2.31,1.418l-0.893,3.727c-0.247,1.029 0.388,2.064 1.417,2.31l24.201,5.797c1.028,0.247 2.064,-0.388 2.31,-1.417l0.893,-3.727Z" style="fill:none;stroke:#000;stroke-width:5px;"/><path d="M272.881,822.377c-2.572,15.801 -5.144,31.602 -7.717,47.403" style="fill:none;stroke:#000;stroke-width:5px;"/><path d="M941.934,972.206c-42.621,-9.921 -85.242,-19.843 -127.863,-29.765" style="fill:none;stroke:#000;stroke-width:5px;"/><path d="M137.121,788.855c-5.087,-1.214 -7.582,-8.586 -7.438,-13.814c0.531,-19.304 6.637,-68.057 10.626,-102.012c14.877,-126.629 63.226,-546.01 78.634,-657.763c0.856,-6.207 7.559,-13.131 13.814,-12.751c142.923,8.678 703.101,51.714 843.721,64.82c4.585,0.427 0.685,9.26 0,13.814c-22.137,147.173 -107.856,721.874 -132.827,869.224c-1.259,7.425 -9.618,16.356 -17.002,14.877c-134.422,-26.92 -656.7,-144.694 -789.528,-176.395Z" style="fill:none;stroke:#000;stroke-width:5px;"/><path d="M1076.48,67.335c7.512,0.996 15.023,1.992 22.534,2.988" style="fill:none;stroke:#000;stroke-width:5px;"/><path d="M232.757,31.206l-90.323,727.896l782.09,175.332l125.389,-844.784l-817.156,-58.444Z" style="fill:none;stroke:#000;stroke-width:5px;"/><path d="M244.446,46.082l-89.26,700.268l760.837,173.207l123.264,-813.968l-794.841,-59.507Z" style="fill:none;stroke:#000;stroke-width:5px;"/><path d="M626.232,902.717c1.454,8.868 4.361,26.604 -4.288,25.727c-37.875,-3.842 -186.606,-36.178 -222.963,-48.774c-8.576,-2.971 0.357,-18.856 4.824,-26.798" style="fill:none;stroke:#000;stroke-width:5px;"/><path d="M419.105,926.943c-3.394,37.965 -10.181,113.893 -10.605,138.284c-0.066,3.798 4.276,8.403 8.06,8.059c10.109,-0.919 38.435,-9.356 52.598,-13.574" style="fill:none;stroke:#000;stroke-width:5px;"/><path d="M419.105,926.943c29.551,-6.645 59.102,-13.291 88.654,-19.936" style="fill:none;stroke:#000;stroke-width:5px;"/><circle cx="360.355" cy="957.697" r="11.241" style="fill:none;stroke:#000;stroke-width:5px;"/><path d="M1076.08,757.128c17.212,6.122 20.571,40.938 7.497,77.701c-13.075,36.763 -37.665,61.64 -54.877,55.518c-17.213,-6.121 -20.572,-40.938 -7.497,-77.701c13.075,-36.763 37.664,-61.64 54.877,-55.518Z" style="fill:none;stroke:#000;stroke-width:5px;"/><circle cx="368.627" cy="954.091" r="20.785" style="fill:none;stroke:#000;stroke-width:5px;"/><circle cx="349.433" cy="1009.13" r="5.832" style="fill:none;stroke:#000;stroke-width:5px;"/><circle cx="354.417" cy="1008.17" r="11.241" style="fill:none;stroke:#000;stroke-width:5px;"/><ellipse cx="355.689" cy="1041.47" rx="4.03" ry="5.09" style="fill:none;stroke:#000;stroke-width:5px;"/><ellipse cx="355.741" cy="1041.58" rx="7.475" ry="9.442" style="fill:none;stroke:#000;stroke-width:5px;"/><path d="M612.52,1150.06c0.99,3.817 1.98,7.635 2.97,11.453" style="fill:none;stroke:#000;stroke-width:5px;"/><path d="M631.536,993.965c0.944,-4.533 2.83,-13.599 8.389,-15.1c9.322,-2.517 34.8,-0.839 47.539,-0" style="fill:none;stroke:#000;stroke-width:5px;"/><path d="M641.044,977.746c-18.052,-4.66 -54.156,-13.981 -57.046,-19.015c-2.889,-5.033 25.509,-9.135 39.709,-11.185" style="fill:none;stroke:#000;stroke-width:5px;"/><path d="M611.962,1149.44c-0,-0 -52.758,-14.075 -64.316,-19.575c-4.315,-2.053 -5.534,-8.67 -5.034,-13.422c2.61,-24.794 15.753,-112.041 20.693,-135.344c0.692,-3.262 5.666,-5.061 8.948,-4.474c11.466,2.051 59.843,16.778 59.843,16.778l-20.134,156.037Z" style="fill:none;stroke:#000;stroke-width:5px;"/><path d="M535.176,1090.44c-5.487,1.367 -16.461,4.102 -21.531,2.735c-4.535,-1.223 -8.852,-6.24 -8.886,-10.937c-0.113,-16.12 6.323,-65.163 8.203,-85.782c1.152,-12.635 -0.969,-29.506 3.076,-37.936c3.557,-7.416 13.158,-10.867 21.189,-12.645c17.487,-3.874 61.65,-8.355 83.732,-10.595" style="fill:none;stroke:#000;stroke-width:5px;"/><path d="M471.264,1067.88c0.242,3.837 0.725,11.511 3.418,16.405c3.418,6.208 8.36,18.715 17.088,20.847c10.025,2.45 35.942,-6.892 43.062,-6.152c3.515,0.366 -0.438,7.063 -0.341,10.595c0.113,4.158 -0.619,9.848 1.025,14.354c1.766,4.842 4.297,12.171 9.569,14.696c13.443,6.437 47.286,16.27 71.087,23.923c70.498,22.671 288.18,97.175 351.899,112.099c12.291,2.878 26.357,-10.605 30.417,-22.557c9.057,-26.657 23.354,-108.794 23.924,-137.388c0.264,-13.283 -8.166,-29.256 -20.506,-34.177c-67.421,-26.885 -324.063,-104.408 -384.023,-127.136c-8.092,-3.067 15.97,-6.764 24.265,-9.227c10.937,-3.247 36.74,-6.835 41.354,-10.253c4.577,-3.39 -7.983,-10.564 -13.671,-10.253c-11.449,0.627 -37.879,9.228 -55.024,14.012c-16.07,4.485 -37.879,10.082 -47.847,14.696c-5.341,2.472 -10.43,7.305 -11.961,12.987c-3.931,14.582 -8.259,52.233 -11.62,74.504c-2.972,19.691 -6.688,45.981 -8.547,59.125" style="fill:none;stroke:#000;stroke-width:5px;"/><path d="M942.342,975.065c-3.471,27.242 -6.942,54.485 -10.413,81.727" style="fill:none;stroke:#000;stroke-width:5px;"/><path d="M841.595,1329.35c5.891,-2.945 17.674,-8.834 23.532,-16.241c7.606,-9.618 17.648,-31.504 22.105,-41.467c2.58,-5.767 3.95,-14.132 4.635,-18.315" style="fill:none;stroke:#000;stroke-width:5px;"/><path d="M322.391,1057.59c16.449,4.996 49.347,14.988 60.234,15.271c4.831,0.125 4.597,-8.767 5.09,-13.574c2.475,-24.108 10.11,-108.166 9.756,-131.072c-0.069,-4.491 -7.59,-5.023 -11.877,-6.363c-11.311,-3.535 -41.098,-11.076 -55.992,-14.846" style="fill:none;stroke:#000;stroke-width:5px;"/><path d="M339.237,891.191c-3.201,3.269 -9.603,9.808 -10.343,16.16c-3.124,26.826 -8.619,117.215 -8.403,144.795c0.059,7.615 6.484,16.329 9.696,20.686" style="fill:none;stroke:#000;stroke-width:5px;"/><path d="M66.453,852.406c-5.064,22.625 -9.158,89.312 -8.404,112.475c0.32,9.824 3.724,23.056 12.928,26.503c53.221,19.931 239.818,80.262 306.398,93.083c30.923,5.954 93.083,-16.16 93.083,-16.16c-0,-0 7.972,-104.611 17.453,-130.575c5.35,-14.654 39.43,-25.21 39.43,-25.21c0,0 -44.709,-15.298 -63.348,-16.16c-16.552,-0.765 -32.099,13.487 -48.48,10.989c-43.094,-6.572 -155.569,-37.384 -210.083,-50.42c-38.986,-9.322 -93.837,-27.041 -117,-27.795c-10.663,-0.347 -19.647,12.859 -21.977,23.27Z" style="fill:none;stroke:#000;stroke-width:5px;"/><path d="M218.358,1134.24c5.797,-29.289 17.391,-87.867 17.391,-87.867" style="fill:none;stroke:#000;stroke-width:5px;"/><path d="M218.886,1134.3c2.216,10.88 6.649,32.639 6.649,32.639c-0,0 380.385,118.468 570.578,177.701" style="fill:none;stroke:#000;stroke-width:5px;"/><path d="M796.113,1344.64c14.909,-5.037 44.727,-15.11 44.727,-15.11c0,-0 -413.83,-130.153 -620.745,-195.23" style="fill:none;stroke:#000;stroke-width:5px;"/><path d="M726.829,1969.35c16.316,-4.522 48.947,-13.564 65.456,-16.219c11.057,-1.778 26.083,-0.4 33.596,0.289" style="fill:none;stroke:#000;stroke-width:5px;"/><path d="M712.927,1955.16c19.679,-4.409 59.036,-13.226 77.62,-15.929c11.178,-1.626 26.317,-0.735 33.886,-0.29" style="fill:none;stroke:#000;stroke-width:5px;"/><ellipse cx="763.322" cy="2003.38" rx="4.634" ry="3.91" style="fill:none;stroke:#000;stroke-width:5px;"/><path d="M743.237,1884.8c0.581,2.443 1.743,7.329 1.189,9.151c-0.471,1.548 -3.168,1.705 -4.516,1.783" style="fill:none;stroke:#000;stroke-width:5px;"/><path d="M721.014,1881.95c-0.758,2.086 -2.274,6.258 -0.238,7.962c2.793,2.338 14.023,6.418 16.995,6.061c2.727,-0.327 1.463,-5.576 0.831,-8.2" style="fill:none;stroke:#000;stroke-width:5px;"/><path d="M738.303,1886.94c-3.622,-0.254 -14.168,-4.7 -16.889,-7.077c-1.843,-1.61 -1.914,-7.359 0.563,-7.185c3.622,0.254 18.446,6.332 21.167,8.709c1.858,1.623 -2.344,5.728 -4.841,5.553Z" style="fill:none;stroke:#000;stroke-width:5px;"/><path d="M788.146,1928.8c0.172,2.812 0.344,5.625 0.516,8.438" style="fill:none;stroke:#000;stroke-width:5px;"/><path d="M759.217,1906.93c-2.306,-0.649 -6.853,3.294 -5.166,4.994c3.731,3.759 21.84,15.957 27.551,17.564c3.332,0.937 9.154,-5.464 6.716,-7.921c-3.731,-3.76 -23.39,-13.03 -29.101,-14.637Z" style="fill:none;stroke:#000;stroke-width:5px;"/><path d="M754.051,1911.93c-0.887,3.997 -2.661,11.992 0.861,16.014c4.047,4.621 18.827,11.422 23.419,11.709c3.595,0.225 3.953,-6.583 4.132,-9.987" style="fill:none;stroke:#000;stroke-width:5px;"/><ellipse cx="739.5" cy="1940.17" rx="4.908" ry="4.477" style="fill:none;stroke:#000;stroke-width:5px;"/><path d="M811.278,1900.67l0,7.659" style="fill:none;stroke:#000;stroke-width:5px;"/><path d="M759.041,1867.89c0.358,3.268 0.715,6.536 1.072,9.804" style="fill:none;stroke:#000;stroke-width:5px;"/><path d="M783.245,1885.96c0.408,3.625 0.817,7.25 1.225,10.876" style="fill:none;stroke:#000;stroke-width:5px;"/><path d="M786.002,1877.54c-1.897,1.562 -5.692,4.686 -3.83,6.281c4.264,3.651 21.03,11.634 29.413,15.625" style="fill:none;stroke:#000;stroke-width:5px;"/><path d="M754.446,1872.02c0.255,2.859 0.51,5.719 0.765,8.578" style="fill:none;stroke:#000;stroke-width:5px;"/><path d="M723.961,1858.08c1.072,3.268 2.145,6.536 3.217,9.804" style="fill:none;stroke:#000;stroke-width:5px;"/><path d="M723.961,1857.32c8.008,4.213 24.025,12.638 29.719,13.787c2.679,0.541 3.854,-4.415 4.442,-6.893" style="fill:none;stroke:#000;stroke-width:5px;"/><path d="M710.574,1859.92c3.08,-0.426 9.242,-1.277 12.102,-2.758c2.351,-1.217 2.414,-6.323 5.055,-6.127c4.468,0.332 14.808,5.208 21.752,8.119c6.763,2.834 13.313,6.153 19.915,9.344c10.248,4.953 31.132,15.234 41.574,20.374" style="fill:none;stroke:#000;stroke-width:5px;"/><path d="M671.511,1900.67l12.714,-15.013l-12.714,15.013Z" style="fill:none;stroke:#000;stroke-width:5px;"/><path d="M668.447,1900.21c1.277,1.123 2.553,2.247 3.83,3.37" style="fill:none;stroke:#000;stroke-width:5px;"/><path d="M660.022,1910.93c1.481,1.073 2.961,2.145 4.442,3.217" style="fill:none;stroke:#000;stroke-width:5px;"/><path d="M649.911,1901.74c1.932,2.749 5.796,8.247 9.038,7.353c3.243,-0.894 11.081,-8.604 10.417,-12.715c-0.664,-4.11 -9.821,-9.336 -14.399,-11.948" style="fill:none;stroke:#000;stroke-width:5px;"/><path d="M651.29,1919.66c2.247,-2.911 4.494,-5.821 6.74,-8.732" style="fill:none;stroke:#000;stroke-width:5px;"/><path d="M688.805,1731.55c5.563,-5.5 11.126,-11 16.689,-16.5" style="fill:none;stroke:#000;stroke-width:5px;"/><path d="M971.916,1947.7c-2.133,2.625 -4.266,5.25 -6.399,7.875" style="fill:none;stroke:#000;stroke-width:5px;"/><path d="M958.626,1973.79c-1.148,1.805 -2.297,3.609 -3.445,5.414" style="fill:none;stroke:#000;stroke-width:5px;"/><path d="M939.43,1975.26c-11.649,-3.773 -23.298,-7.547 -34.947,-11.32" style="fill:none;stroke:#000;stroke-width:5px;"/><path d="M903.007,1931.95c5.414,-7.301 16.243,-21.903 21.165,-26.086c2.139,-1.819 5.655,0.256 8.367,0.984c8.86,2.379 38.638,8.285 44.791,13.29c4.783,3.89 -4.402,11.641 -7.875,16.734c-6.153,9.024 -24.283,29.615 -29.041,37.408c-1.626,2.664 -0.038,6.276 0.493,9.352c0.82,4.758 3.226,14.383 4.429,19.196" style="fill:none;stroke:#000;stroke-width:5px;"/><path d="M921.711,1987.57c1.148,9.516 2.297,19.031 3.445,28.547" style="fill:none;stroke:#000;stroke-width:5px;"/><path d="M904.976,1971.33c4.32,-0.328 12.961,-0.985 17.227,2.953c4.266,3.938 6.563,13.7 8.367,20.673c1.78,6.876 3.528,17.309 2.461,21.164c-0.806,2.916 -6.525,0.045 -8.859,1.969c-4.676,3.856 -14.356,15.395 -19.196,21.165" style="fill:none;stroke:#000;stroke-width:5px;"/><path d="M903.499,2008.73c5.852,-5.058 17.555,-15.176 17.719,-19.688c0.165,-4.512 -11.102,-6.426 -16.735,-7.383" style="fill:none;stroke:#000;stroke-width:5px;"/><path d="M693.383,1976.66c-3.742,0.828 -11.226,2.485 -16.936,2.59c-7.172,0.133 -19.093,-0.464 -26.1,-1.793c-5.598,-1.061 -12.492,-4.471 -15.939,-6.176" style="fill:none;stroke:#000;stroke-width:5px;"/><path d="M679.635,1963.51c-15.009,0.465 -30.018,0.93 -45.027,1.394" style="fill:none;stroke:#000;stroke-width:5px;"/><path d="M636.6,1957.74c17.002,-0.266 34.003,-0.531 51.005,-0.797" style="fill:none;stroke:#000;stroke-width:5px;"/><path d="M647.957,1916.3c13.614,11.422 27.229,22.845 40.843,34.268" style="fill:none;stroke:#000;stroke-width:5px;"/><path d="M671.865,1955.54c-9.431,-7.836 -18.861,-15.673 -28.292,-23.51" style="fill:none;stroke:#000;stroke-width:5px;"/><path d="M726.854,1969.29c-7.106,0.265 -33.604,6.641 -37.855,9.961c-4.168,3.257 7.279,8.466 12.353,9.962c5.18,1.528 13.681,1.129 18.728,-0.797c4.917,-1.876 10.427,-7.571 11.556,-10.758c1.073,-3.029 -1.571,-8.488 -4.782,-8.368Z" style="fill:none;stroke:#000;stroke-width:5px;"/><path d="M679.635,1964.11c-1.228,1.993 1.906,9.725 5.778,10.162c4.715,0.531 21.285,-4.981 22.514,-6.974c1.229,-1.992 -10.427,-4.449 -15.142,-4.981c-4.396,-0.495 -11.921,-0.199 -13.15,1.793Z" style="fill:none;stroke:#000;stroke-width:5px;"/><path d="M697.766,1947.18c-1.323,-0.399 -2.442,1.383 -3.387,2.391c-1.494,1.594 -8.478,6.297 -5.579,7.173c3.188,0.963 23.211,0.199 24.706,-1.395c1.494,-1.594 -12.552,-7.206 -15.74,-8.169Z" style="fill:none;stroke:#000;stroke-width:5px;"/><path d="M712.825,1927c2.175,1.346 4.349,2.692 6.524,4.039" style="fill:none;stroke:#000;stroke-width:5px;"/><path d="M697.601,1920.48c1.243,0.829 2.485,1.657 3.728,2.486" style="fill:none;stroke:#000;stroke-width:5px;"/><path d="M683.309,1913.02c1.036,0.725 2.071,1.45 3.107,2.175" style="fill:none;stroke:#000;stroke-width:5px;"/><path d="M672.746,1917.06c0.034,-3.78 0.103,-11.34 1.553,-13.359c1.41,-1.964 6.103,-0.939 7.146,1.242c1.139,2.382 0.173,9.494 -0.311,13.049" style="fill:none;stroke:#000;stroke-width:5px;"/><path d="M687.037,1927c0.035,-3.781 0.104,-11.341 1.554,-13.36c1.41,-1.964 6.103,-0.939 7.146,1.243c1.139,2.382 0.172,9.493 -0.311,13.049" style="fill:none;stroke:#000;stroke-width:5px;"/><path d="M702.572,1934.77c0.034,-3.78 0.103,-11.34 1.553,-13.36c1.41,-1.964 6.103,-0.938 7.146,1.243c1.139,2.382 0.173,9.493 -0.31,13.049" style="fill:none;stroke:#000;stroke-width:5px;"/><path d="M673.678,1904.94c-3.073,3.09 -9.217,9.269 -9.632,12.428c-0.414,3.159 4.333,4.946 7.146,6.525c7.198,4.039 28.014,16.466 36.04,17.709c5.229,0.81 9.821,-6.565 12.117,-10.253" style="fill:none;stroke:#000;stroke-width:5px;"/><path d="M661.41,1848.82c3.599,0.432 7.199,0.864 10.799,1.296" style="fill:none;stroke:#000;stroke-width:5px;"/><path d="M677.393,1861.35c-5.328,-1.152 -10.656,-2.304 -15.983,-3.456" style="fill:none;stroke:#000;stroke-width:5px;"/><path d="M676.961,1850.55c2.304,0.576 4.608,1.152 6.912,1.728" style="fill:none;stroke:#000;stroke-width:5px;"/><path d="M677.393,1861.35c-3.312,-10.656 -6.624,-21.311 -9.936,-31.967" style="fill:none;stroke:#000;stroke-width:5px;"/><path d="M704.176,1888.13c0.549,-1.562 1.645,-4.687 0.432,-6.48c-1.656,-2.448 -7.463,-6.287 -10.367,-8.207" style="fill:none;stroke:#000;stroke-width:5px;"/><path d="M703.744,1889.43c-3.606,-0.319 -10.82,-0.956 -15.119,-3.888c-4.752,-3.24 -12.096,-10.799 -13.392,-15.551c-1.239,-4.542 3.331,-10.154 5.616,-12.96" style="fill:none;stroke:#000;stroke-width:5px;"/><path d="M700.288,1872.58c-3.815,1.584 -14.615,-1.512 -16.847,-4.752c-2.232,-3.24 -0.36,-13.104 3.456,-14.688c3.816,-1.584 17.207,1.944 19.439,5.184c2.232,3.24 -2.232,12.672 -6.048,14.256Z" style="fill:none;stroke:#000;stroke-width:5px;"/><path d="M811.741,1967.18c4.896,0.144 9.792,0.288 14.688,0.432" style="fill:none;stroke:#000;stroke-width:5px;"/><path d="M806.989,1975.83c6.912,0.719 13.824,1.439 20.736,2.159" style="fill:none;stroke:#000;stroke-width:5px;"/><path d="M800.941,1980.14c5.184,-0.216 11.808,-10.007 9.504,-14.255c-2.304,-4.248 -18.143,-11.448 -23.327,-11.232c-4.911,0.205 -10.08,8.28 -7.776,12.528c2.304,4.248 16.416,13.175 21.599,12.959Z" style="fill:none;stroke:#000;stroke-width:5px;"/><path d="M758.027,2030.86c3.297,0.936 9.89,2.808 13.932,0.516c5.761,-3.268 14.242,-12.953 20.639,-20.123c7.825,-8.772 20.151,-24.595 26.314,-32.507" style="fill:none;stroke:#000;stroke-width:5px;"/><path d="M435.809,1906.38c3.238,-3.349 6.476,-6.699 9.713,-10.048" style="fill:none;stroke:#000;stroke-width:5px;"/><path d="M370.832,1971.69c18.868,-19.091 37.736,-38.182 56.604,-57.273" style="fill:none;stroke:#000;stroke-width:5px;"/><path d="M671.823,1811.3c2.814,-1.469 8.441,-4.409 11.57,-7.867c4.396,-4.859 12.649,-13.652 14.809,-21.288c2.159,-7.636 -0.154,-18.28 -1.851,-24.528c-1.346,-4.955 -6.002,-10.29 -8.33,-12.958" style="fill:none;stroke:#000;stroke-width:5px;"/><path d="M707.458,1858.97c20.054,-23.293 40.108,-46.587 60.162,-69.88" style="fill:none;stroke:#000;stroke-width:5px;"/><path d="M1101.29,1837.68c5.4,-6.942 10.799,-13.883 16.198,-20.825" style="fill:none;stroke:#000;stroke-width:5px;"/><path d="M968.469,2021.4c9.873,-14.038 19.745,-28.075 29.618,-42.113" style="fill:none;stroke:#000;stroke-width:5px;"/><path d="M905.53,2107.95c16.506,-22.213 33.012,-44.427 49.518,-66.641" style="fill:none;stroke:#000;stroke-width:5px;"/><path d="M790.296,2047.32c12.495,-14.192 24.991,-28.384 37.486,-42.576" style="fill:none;stroke:#000;stroke-width:5px;"/><path d="M1111.77,1813.3c18.668,7.273 37.335,14.546 56.002,21.819" style="fill:none;stroke:#000;stroke-width:5px;"/><path d="M711.889,1716.73c-5.447,-2.441 -10.894,-4.883 -16.341,-7.325" style="fill:none;stroke:#000;stroke-width:5px;"/><path d="M462.09,1923.43c-1.64,-0.86 -4.921,-2.581 -5.938,-4.948c-1.617,-3.761 -4.19,-12.173 -3.761,-17.617c0.427,-5.424 3.321,-10.512 6.334,-15.043c4.189,-6.301 13.932,-17.276 18.804,-22.763" style="fill:none;stroke:#000;stroke-width:5px;"/><path d="M458.725,1929.37c-2.563,-1.202 -7.689,-3.606 -9.501,-7.125c-2.277,-4.421 -4.525,-12.796 -4.157,-19.398c0.396,-7.093 4.487,-17.804 6.532,-23.159" style="fill:none;stroke:#000;stroke-width:5px;"/><path d="M446.651,1937.88c-1.042,-1.526 -3.125,-4.577 -4.157,-7.126c-2.112,-5.212 -8.446,-16.825 -8.512,-24.148c-0.064,-7.131 2.973,-14.855 8.116,-19.794c8.346,-8.017 30.757,-21.543 41.963,-28.306" style="fill:none;stroke:#000;stroke-width:5px;"/><path d="M442.296,1943.03c-2.006,-2.293 -6.019,-6.88 -7.522,-11.084c-2.441,-6.829 -8.379,-20.718 -7.126,-29.889c1.254,-9.171 7.278,-18.835 14.648,-25.138c9.798,-8.38 32.693,-19.552 44.14,-25.139" style="fill:none;stroke:#000;stroke-width:5px;"/><path d="M455.36,1936.49c2.353,-3.717 7.06,-11.15 9.303,-13.064c1.128,-0.962 3.147,0.735 4.157,1.584" style="fill:none;stroke:#000;stroke-width:5px;"/><path d="M459.714,1964.21c-1.917,-0.996 -5.752,-2.989 -8.313,-4.949c-3.233,-2.474 -11.15,-6.202 -11.085,-9.897c0.066,-3.695 7.588,-11.546 11.481,-12.272c3.893,-0.726 9.215,5.037 11.876,7.918" style="fill:none;stroke:#000;stroke-width:5px;"/><path d="M439.129,1982.61c6.334,-5.806 12.668,-11.612 19.002,-17.419" style="fill:none;stroke:#000;stroke-width:5px;"/><path d="M449.741,2005.43c-3.011,-0.549 -9.035,-1.648 -10.803,-5.238c-1.801,-3.656 0,-16.696 0,-16.696c0,0 8.948,4.365 13.422,6.548" style="fill:none;stroke:#000;stroke-width:5px;"/><path d="M633.123,1974.13c1.357,1.104 4.072,3.312 6.266,4.742c3.161,2.06 7.94,6.315 12.701,7.621c5.561,1.524 13.943,-0.073 20.661,1.524c7.96,1.891 20.322,6.774 27.096,9.822c4.857,2.185 9.37,5.166 13.548,8.468c4.573,3.612 8.437,9.876 13.887,13.209c8.355,5.109 26.25,12.814 36.241,17.443c7.822,3.624 18.414,8.095 23.709,10.331" style="fill:none;stroke:#000;stroke-width:5px;"/><path d="M770.805,2044.24c-4.099,-1.169 -12.298,-3.506 -18.12,-6.096c-7.169,-3.19 -17.121,-7.814 -24.895,-13.04c-8.27,-5.561 -15.778,-15.073 -24.725,-20.323c-8.924,-5.236 -20.604,-8.89 -28.959,-11.177c-6.855,-1.876 -14.443,-0.243 -21.169,-2.54c-6.943,-2.371 -15.975,-8.58 -20.491,-11.685" style="fill:none;stroke:#000;stroke-width:5px;"/><path d="M630.03,1990.86c2.407,2.127 7.221,6.381 10.986,9.384c6.218,4.96 17.853,14.687 26.322,20.371c7.771,5.216 15.71,10.493 24.491,13.733c9.613,3.548 21.957,5.944 33.188,7.553c12.779,1.831 29.259,1.145 43.488,3.434c14.195,2.283 31.471,7.171 41.885,10.299c7.111,2.136 16.103,6.358 20.6,8.469" style="fill:none;stroke:#000;stroke-width:5px;"/><path d="M656.798,2025.42c2.736,1.791 8.207,5.375 12.589,7.553c6.37,3.166 16.604,8.99 25.635,11.444c10.528,2.861 25.062,3.815 37.537,5.722c12.436,1.902 25.136,2.538 37.308,5.722c16.479,4.311 46.539,14.865 61.569,20.142" style="fill:none;stroke:#000;stroke-width:5px;"/><path d="M820.368,2124.76c4.683,6.666 9.365,13.332 14.047,19.998" style="fill:none;stroke:#000;stroke-width:5px;"/><path d="M818.94,2125.48c0.476,4.682 0.952,9.364 1.428,14.046" style="fill:none;stroke:#000;stroke-width:5px;"/><path d="M803.703,2164.76c5.555,-8.016 16.665,-24.046 16.665,-24.046c0,-0 9.841,4.444 14.761,6.666" style="fill:none;stroke:#000;stroke-width:5px;"/><path d="M835.367,2166.43c-2.169,-0.304 -6.507,-0.912 -7.618,-2.857c-1.111,-1.944 -0.238,-7.499 0.952,-8.809c1.19,-1.309 4.524,0.199 6.19,0.953" style="fill:none;stroke:#000;stroke-width:5px;"/><path d="M833.198,2194.72c1.53,-1.773 3.061,-3.545 4.592,-5.318" style="fill:none;stroke:#000;stroke-width:5px;"/><path d="M907.664,2170.47c2.815,-0.437 8.446,-1.312 12.235,-3.149c4.664,-2.262 12.053,-7.699 15.748,-10.418" style="fill:none;stroke:#000;stroke-width:5px;"/><path d="M908.27,2161.87c2.595,-0.495 7.786,-1.486 11.266,-3.27c6.299,-3.231 19.786,-11.818 26.529,-16.112" style="fill:none;stroke:#000;stroke-width:5px;"/><path d="M949.049,2024.62c2.206,3.905 6.619,11.715 9.174,17.92c3.235,7.858 8.035,21.084 10.24,29.227c1.729,6.387 2.567,15.213 2.986,19.626" style="fill:none;stroke:#000;stroke-width:5px;"/><path d="M907.876,2150.7c3.234,-0.341 9.702,-1.024 14.08,-2.987c6.898,-3.093 19.698,-9.813 27.307,-15.573c7.017,-5.312 13.342,-11.747 18.346,-18.987c5.654,-8.178 13.334,-19.875 15.574,-30.08c2.231,-10.164 0.905,-21.193 -2.134,-31.146c-3.484,-11.414 -13.677,-28.694 -18.773,-37.334" style="fill:none;stroke:#000;stroke-width:5px;"/><path d="M908.729,2144.09c6.234,-1.731 18.702,-5.192 26.88,-10.027c8.178,-4.836 16.056,-11.426 22.187,-18.987c6.4,-7.893 14.326,-17.645 16.213,-28.373c2.027,-11.52 -0.995,-29.44 -4.053,-40.747c-2.666,-9.856 -10.418,-21.348 -14.293,-27.093" style="fill:none;stroke:#000;stroke-width:5px;"/><path d="M710.404,2084.72c-3.919,-3.385 -11.756,-10.154 -17.758,-14.799c-5.918,-4.58 -12.766,-7.981 -18.251,-13.072c-6.865,-6.371 -16.484,-18.375 -22.938,-25.157c-5.089,-5.349 -11.345,-11.633 -15.785,-15.539c-3.358,-2.954 -8.354,-6.246 -10.852,-7.892" style="fill:none;stroke:#000;stroke-width:5px;"/><path d="M714.104,2080.28c-2.767,-2.938 -8.301,-8.815 -12.825,-12.825c-5.796,-5.139 -15.027,-11.555 -21.951,-18.005c-7.194,-6.701 -15.662,-16.278 -21.212,-22.198c-4.1,-4.373 -7.669,-9.264 -12.085,-13.318c-5.015,-4.604 -13.675,-11.072 -18.005,-14.306" style="fill:none;stroke:#000;stroke-width:5px;"/><path d="M729.149,2064.25c-2.522,-1.898 -7.565,-5.695 -11.839,-7.646c-5.673,-2.589 -15.949,-6.782 -22.197,-7.892c-5.035,-0.894 -11.873,0.524 -15.292,1.233" style="fill:none;stroke:#000;stroke-width:5px;"/><path d="M725.696,2069.92c-2.218,-1.537 -6.654,-4.611 -10.359,-6.166c-4.604,-1.932 -13.044,-4.261 -17.265,-5.426" style="fill:none;stroke:#000;stroke-width:5px;"/><path d="M698.072,2058.33c-2.795,-0.247 -5.59,-0.493 -8.386,-0.74" style="fill:none;stroke:#000;stroke-width:5px;"/><path d="M747.045,2090.29c-5.248,-0.587 -18.792,-10.277 -20.921,-14.975c-2.129,-4.698 3.006,-13.789 8.148,-13.213c5.249,0.587 21.215,12.038 23.344,16.737c2.129,4.698 -5.408,12.029 -10.571,11.451Z" style="fill:none;stroke:#000;stroke-width:5px;"/><path d="M717.315,2094.25c-2.422,-0.624 -7.267,-1.872 -7.267,-4.184c-0,-2.312 3.47,-11.063 7.267,-9.69c4.772,1.725 15.832,13.935 21.362,20.041" style="fill:none;stroke:#000;stroke-width:5px;"/><path d="M736.705,2085.09c-1.155,1.485 -2.31,2.971 -3.465,4.456" style="fill:none;stroke:#000;stroke-width:5px;"/><path d="M703.288,2129.39c6.106,-7.343 12.212,-14.686 18.318,-22.03" style="fill:none;stroke:#000;stroke-width:5px;"/><path d="M789.677,2066.52c-6.601,1.568 -19.802,4.704 -19.802,4.704c-0,-0 -9.53,-5.611 -12.872,-5.941c-2.72,-0.269 -5.692,2.551 -7.179,3.96" style="fill:none;stroke:#000;stroke-width:5px;"/><path d="M757.25,2108.11c11.057,-14.027 33.17,-42.081 33.17,-42.081c-0,0 28.053,12.542 42.08,18.813" style="fill:none;stroke:#000;stroke-width:5px;"/><path d="M740.418,2130.14c3.548,-4.291 7.096,-8.581 10.644,-12.872" style="fill:none;stroke:#000;stroke-width:5px;"/><path d="M793.39,2155.63c8.829,-11.057 17.657,-22.113 26.486,-33.169" style="fill:none;stroke:#000;stroke-width:5px;"/><path d="M820.371,2188.56c-8.829,-10.892 -26.486,-32.675 -26.486,-32.675l-53.962,-25.248c0,0 -17.657,3.631 -26.486,5.446" style="fill:none;stroke:#000;stroke-width:5px;"/><path d="M216.703,1972.85c103.838,-99.254 207.675,-198.508 311.513,-297.763" style="fill:none;stroke:#000;stroke-width:5px;"/><path d="M763.546,1536.45c1.939,-1.899 5.817,-5.698 9.597,-6.484c4.366,-0.908 11.058,1.228 16.599,1.037c6.268,-0.216 14.32,-0.118 21.008,-2.334c7.046,-2.334 15.821,-6.959 21.268,-11.671c5.078,-4.393 9.581,-10.139 11.412,-16.599c2.378,-8.386 3.718,-23.602 2.853,-33.717c-0.799,-9.349 -5.274,-19.928 -8.04,-26.974c-2.136,-5.44 -6.418,-12.015 -8.559,-15.303" style="fill:none;stroke:#000;stroke-width:5px;"/><path d="M777.298,1512.15c-11.103,-3.708 -22.206,-7.415 -33.31,-11.122" style="fill:none;stroke:#000;stroke-width:5px;"/><path d="M826.945,1812.62c-37.34,-15.672 -112.022,-47.015 -112.022,-47.015c0,0 -3.869,-75.455 -5.804,-113.182" style="fill:none;stroke:#000;stroke-width:5px;"/><path d="M826.98,1816.3c5.625,2.47 11.25,4.94 16.876,7.409" style="fill:none;stroke:#000;stroke-width:5px;"/><path d="M811.751,1867.75c-7.134,-3.292 -21.402,-9.878 -21.402,-9.878l35.808,-41.159l-0.823,-50.214l53.507,23.049l-0,32.104" style="fill:none;stroke:#000;stroke-width:5px;"/><path d="M779.571,1542.57c2.999,-3.636 5.999,-7.272 8.999,-10.908" style="fill:none;stroke:#000;stroke-width:5px;"/><path d="M831.782,1471.81c-18.971,-7.683 -56.911,-23.049 -56.911,-23.049c-0,0 -15.556,14.607 -23.334,21.911" style="fill:none;stroke:#000;stroke-width:5px;"/><path d="M848.286,1476.37c8.726,3.415 17.452,6.829 26.179,10.244" style="fill:none;stroke:#000;stroke-width:5px;"/><path d="M1056.86,1553.2c-53.306,-19.824 -106.613,-39.648 -159.919,-59.472" style="fill:none;stroke:#000;stroke-width:5px;"/><path d="M984.842,1611.26c8.414,3.484 16.829,6.969 25.243,10.453" style="fill:none;stroke:#000;stroke-width:5px;"/><path d="M980.503,1583.45c9.992,3.353 29.977,10.058 29.977,10.058l46.345,-41.02c-0,-0 0.263,19.327 0.394,28.99" style="fill:none;stroke:#000;stroke-width:5px;"/><path d="M1010.48,1593.51c0.263,9.664 0.526,19.327 0.788,28.991" style="fill:none;stroke:#000;stroke-width:5px;"/><path d="M934.947,1568.27c6.245,2.169 12.49,4.339 18.735,6.508" style="fill:none;stroke:#000;stroke-width:5px;"/><path d="M754.728,1526.08c1.102,-1.498 3.305,-4.494 5.706,-5.706c4.539,-2.291 14.265,-6.96 21.527,-8.041c7.262,-1.08 15.173,3.199 22.046,1.556c6.873,-1.642 14.836,-5.376 19.193,-11.411c4.712,-6.528 8.472,-18.286 9.077,-27.752c0.606,-9.467 -1.487,-20.028 -5.446,-29.049c-4.193,-9.553 -12.536,-21.051 -19.712,-28.27c-6.525,-6.565 -17.074,-11.023 -23.342,-15.043c-4.744,-3.043 -11.092,-7.066 -14.265,-9.078" style="fill:none;stroke:#000;stroke-width:5px;"/><path d="M942.638,1860.34c-13.171,-5.762 -26.342,-11.525 -39.513,-17.287" style="fill:none;stroke:#000;stroke-width:5px;"/><path d="M953.19,1566.86c2.222,-0.671 6.666,-2.012 9.055,-3.522c2.157,-1.361 4.241,-4.143 5.283,-5.534" style="fill:none;stroke:#000;stroke-width:5px;"/><path d="M918.979,1560.57c1.089,-1.007 3.267,-3.021 4.025,-5.031c0.964,-2.557 1.495,-7.728 1.761,-10.313" style="fill:none;stroke:#000;stroke-width:5px;"/><path d="M774.921,1370.31c5.859,3.28 17.578,9.838 26.061,15.256c11.336,7.239 29.275,17.41 41.953,28.18c12.677,10.771 25.496,23.872 34.113,36.444c8.059,11.759 12.677,26.52 17.586,38.986c4.607,11.7 7.239,26.732 11.865,35.808c3.709,7.275 10.311,15.114 15.891,18.645c5.006,3.168 11.782,1.376 17.59,2.543c6.851,1.377 17.445,0.883 23.519,5.721c6.074,4.838 9.958,16.35 12.925,23.307c2.492,5.846 4.125,12.122 4.873,18.433c0.883,7.452 3.814,20.906 0.424,26.274c-3.39,5.367 -14.973,5.744 -20.765,5.932" style="fill:none;stroke:#000;stroke-width:5px;"/><path d="M959.805,1625.21c-0.178,-1.979 -0.533,-5.936 -0.847,-8.899c-0.565,-5.333 -1.695,-15.397 -2.543,-23.095c-0.883,-8.016 0.636,-20.023 -2.754,-25.002c-3.39,-4.98 -11.636,-3.612 -17.586,-4.874c-6.498,-1.377 -15.331,0.525 -21.4,-3.39c-7.063,-4.555 -15.985,-14.579 -20.977,-23.942c-6.25,-11.724 -11.971,-34.113 -16.527,-46.402c-3.405,-9.187 -5.735,-18.95 -10.805,-27.333c-5.297,-8.758 -13.222,-17.621 -20.977,-25.214c-7.754,-7.592 -16.775,-13.898 -25.549,-20.34c-8.849,-6.498 -19.493,-13.737 -27.545,-18.646c-6.662,-4.062 -16.064,-8.558 -20.764,-10.806" style="fill:none;stroke:#000;stroke-width:5px;"/><path d="M910.379,1591.17c-43.755,-15.923 -131.266,-47.767 -131.266,-47.767c0,0 -0.486,13.856 -0.729,20.784" style="fill:none;stroke:#000;stroke-width:5px;"/><path d="M910.379,1591.17c-0.028,7.222 -0.084,21.666 -0.084,21.666l25.244,-23.468c-0,-0 13.41,5.916 20.115,8.874" style="fill:none;stroke:#000;stroke-width:5px;"/><path d="M935.539,1589.37c-0.198,-7.231 -0.592,-21.694 -0.592,-21.694c0,0 -16.434,16.04 -24.652,24.06" style="fill:none;stroke:#000;stroke-width:5px;"/><path d="M729.159,1562c86.295,31.723 172.59,63.445 258.885,95.168" style="fill:none;stroke:#000;stroke-width:5px;"/><path d="M1084.42,1724.32l-24.063,-9.105l24.063,9.105Z" style="fill:none;stroke:#000;stroke-width:5px;"/><path d="M1075.4,1764.38c-4.892,-1.855 -9.783,-3.711 -14.675,-5.566" style="fill:none;stroke:#000;stroke-width:5px;"/><path d="M1130.56,1783.61c19.06,7.253 38.12,14.506 57.181,21.759" style="fill:none;stroke:#000;stroke-width:5px;"/><path d="M1110.29,1732.22c33.915,13.253 67.83,26.506 101.745,39.759" style="fill:none;stroke:#000;stroke-width:5px;"/><path d="M1104.75,1924.79c37.108,-51.446 74.216,-102.891 111.325,-154.337" style="fill:none;stroke:#000;stroke-width:5px;"/><path d="M1212.25,1878.19l27.124,-42.906l-27.124,42.906Z" style="fill:none;stroke:#000;stroke-width:5px;"/><path d="M832.979,2118.38c-3.665,0.735 -10.996,2.205 -16.576,2.469c-8.699,0.411 -23.924,1.117 -35.621,-0c-11.683,-1.115 -23.513,-3.645 -34.564,-6.701c-10.861,-3.004 -21.569,-6.79 -31.742,-11.639c-12.579,-5.996 -30.044,-14.8 -43.733,-24.335c-13.755,-9.582 -30.096,-25.335 -38.795,-33.153c-4.762,-4.279 -10.522,-10.596 -13.403,-13.755" style="fill:none;stroke:#000;stroke-width:5px;"/><path d="M833.421,2111.82c-4.546,0.86 -13.639,2.579 -20.545,2.681c-10.36,0.152 -29.214,0.058 -41.617,-1.764c-11.232,-1.65 -22.077,-5.44 -32.8,-9.17c-12.168,-4.232 -27.862,-9.816 -40.206,-16.223c-11.982,-6.219 -23.132,-14.024 -33.858,-22.22c-11.463,-8.758 -27.745,-23.512 -34.916,-30.331c-3.221,-3.062 -6.482,-8.074 -8.112,-10.58" style="fill:none;stroke:#000;stroke-width:5px;"/><path d="M955.319,2014.89c-16.396,18.059 -32.791,36.119 -49.187,54.179" style="fill:none;stroke:#000;stroke-width:5px;"/><path d="M951.074,2008.15c-15.147,16.729 -30.294,33.457 -45.441,50.185" style="fill:none;stroke:#000;stroke-width:5px;"/><path d="M995.76,1802.16c-26.651,30.09 -53.303,60.181 -79.954,90.271" style="fill:none;stroke:#000;stroke-width:5px;"/><path d="M1059.79,1687.4c-0.807,-35.134 -2.42,-105.403 -2.42,-105.403l-68.297,62.382l6.991,157.297" style="fill:none;stroke:#000;stroke-width:5px;"/><path d="M989.075,1644.38c-85.301,-32.563 -170.603,-65.126 -255.905,-97.689" style="fill:none;stroke:#000;stroke-width:5px;"/><path d="M1088.21,1950.89c8.771,-1.878 26.312,-5.632 39.089,-9.773c14.961,-4.848 36.967,-13.484 50.678,-19.316c10.818,-4.602 22.537,-9.886 31.589,-15.681c8.332,-5.334 16.325,-12.424 22.726,-19.09c6.034,-6.284 11.438,-13.825 15.681,-20.908c4.058,-6.776 7.519,-14.018 9.772,-21.589c2.31,-7.765 3.749,-17.196 4.09,-24.998c0.319,-7.298 -0.265,-15.454 -2.045,-21.817c-1.662,-5.939 -4.873,-11.477 -8.636,-16.363c-5.075,-6.59 -14.431,-16.741 -21.817,-23.18c-6.858,-5.979 -14.594,-10.947 -22.498,-15.454c-8.371,-4.772 -18.39,-8.99 -27.726,-13.181c-9.62,-4.317 -19.875,-8.787 -29.998,-12.726c-11.097,-4.318 -24.809,-9.204 -36.588,-13.181c-11.282,-3.809 -25.301,-7.916 -34.089,-10.681c-6.216,-1.956 -18.635,-5.909 -18.635,-5.909l-0.909,16.817c0,0 34.278,10.075 46.361,13.863c8.777,2.752 17.506,5.673 26.134,8.863c9.015,3.333 19.658,7.84 27.953,11.136c7.269,2.887 14.724,5.34 21.817,8.635c7.499,3.485 17.082,8.561 23.18,12.272c4.763,2.899 9.206,6.335 13.408,10c4.735,4.128 10.795,9.62 14.999,14.772c4.027,4.933 8.409,10.87 10.227,16.135c1.683,4.874 1.159,10.319 0.682,15.453c-0.606,6.515 -2.652,17.196 -4.318,23.635c-1.34,5.176 -3.598,10.909 -5.682,14.999c-1.774,3.484 -4.273,6.576 -6.817,9.545c-3.409,3.977 -8.618,10.045 -13.636,14.317c-5.606,4.773 -12.915,10.19 -19.999,14.317c-8.711,5.076 -21.968,11.477 -32.27,16.136c-9.664,4.37 -20.226,8.749 -29.544,11.817c-8.603,2.833 -17.552,4.486 -26.362,6.591c-9.355,2.234 -22.081,5.264 -29.77,6.817c-5.409,1.093 -12.711,2.031 -16.363,2.5" style="fill:none;stroke:#000;stroke-width:5px;"/><path d="M1058.9,1703.86c-0.088,22.76 -0.266,68.279 0.694,81.039c0.169,2.248 3.487,-2.871 5.065,-4.48c4.902,-5 17.238,-21.069 24.348,-25.517c5.185,-3.244 13.797,0.389 18.31,-1.169c3.778,-1.304 11.105,-4.941 8.765,-8.181c-3.376,-4.675 -21.231,-13.797 -29.023,-19.868c-6.378,-4.969 -13.943,-12.694 -17.725,-16.557" style="fill:none;stroke:#000;stroke-width:5px;"/><path d="M1108.04,1874.26c-67.077,79.906 -75.141,90.903 -75.141,90.903l75.141,-90.903c0,0 3.299,-23.092 -10.996,-43.252" style="fill:none;stroke:#000;stroke-width:5px;"/><path d="M1032.9,1965.16c-1.266,3.419 -3.8,10.257 -8.37,11.777c-5.902,1.962 -24.09,3.108 -27.043,-0c-2.953,-3.109 7.991,-11.83 9.326,-18.651c1.398,-7.149 0.155,-19.816 -0.933,-24.245c-0.482,-1.963 -4.058,-3.643 -5.595,-2.332c-5.828,4.974 -23.002,23.702 -29.374,32.172c-4.138,5.5 -5.328,12.743 -8.859,18.651c-4.041,6.76 -14.221,17.64 -15.387,21.914c-0.805,2.953 6.839,1.71 8.393,3.73c1.554,2.02 -1.669,9.467 0.932,8.393c3.575,-1.477 14.054,-11.081 20.516,-17.252c6.916,-6.605 16.293,-17.122 20.981,-22.38" style="fill:none;stroke:#000;stroke-width:5px;"/><path d="M1032.9,1965.16c-1.599,-8.126 -4.799,-24.379 -8.836,-32.052c-3.227,-6.134 -8.728,-12.061 -15.386,-13.988c-18.262,-5.284 -68.877,-13.573 -94.185,-17.718" style="fill:none;stroke:#000;stroke-width:5px;"/><path d="M1017.92,1924.79c26.292,-33.287 78.876,-99.859 78.876,-99.859c-0,-0 -66.52,-14.921 -99.78,-22.381" style="fill:none;stroke:#000;stroke-width:5px;"/><path d="M1038.1,1811.77c7.397,-8.647 14.794,-17.295 22.191,-25.942" style="fill:none;stroke:#000;stroke-width:5px;"/><path d="M1097.04,1831c-0.029,-1.609 -0.088,-4.828 1.315,-6.563c2.589,-3.204 9.717,-8.189 14.219,-12.661c4.87,-4.838 12.434,-9.967 14.999,-16.362c2.564,-6.396 -0.39,-16.363 0.389,-22.011c0.576,-4.171 4.656,-7.688 4.286,-11.882c-0.422,-4.773 -3.085,-12.018 -6.818,-16.752c-3.993,-5.064 -11.817,-9.772 -17.141,-13.635c-4.752,-3.448 -9.934,-6.298 -14.804,-9.545c-4.855,-3.236 -11.228,-7.701 -14.414,-9.934" style="fill:none;stroke:#000;stroke-width:5px;"/><path d="M1088.24,1950.86c0,-0 -43.985,8.797 -44.352,6.231" style="fill:none;stroke:#000;stroke-width:5px;"/><path d="M826.742,2120.2c-3.103,5.587 -0.543,9.233 5.665,12.647c6.208,3.414 20.796,9.001 31.66,9.622c10.863,0.621 43.765,3.414 56.491,-3.414c12.726,-6.829 18.623,-8.691 22.037,-25.452c3.415,-16.761 -0.62,-37.247 -5.897,-46.869c-5.277,-9.622 -22.969,-31.66 -22.969,-31.66" style="fill:none;stroke:#000;stroke-width:5px;"/><path d="M794.797,2493.81l-9.154,-5.086c0,0 -18.307,16.782 -18.816,49.838" style="fill:none;stroke:#000;stroke-width:5px;"/><path d="M776.998,2543.65c-3.39,-1.695 -6.78,-3.39 -10.171,-5.085" style="fill:none;stroke:#000;stroke-width:5px;"/><path d="M703.768,2580.26c3.197,-1.873 9.591,-5.618 14.748,-7.628c11.527,-4.492 40.118,-14.381 54.414,-19.325" style="fill:none;stroke:#000;stroke-width:5px;"/><path d="M938.973,2534.25c6.787,-6.705 13.575,-13.41 20.363,-20.115" style="fill:none;stroke:#000;stroke-width:5px;"/><path d="M908.427,2634.08c0.828,8.443 1.656,16.886 2.483,25.33" style="fill:none;stroke:#000;stroke-width:5px;"/><path d="M881.607,2640.79c-2.549,1.145 -7.647,3.435 -9.189,6.953c-7.036,16.059 -24.364,64.954 -33.028,89.401" style="fill:none;stroke:#000;stroke-width:5px;"/><path d="M876.392,2608.26c-2.085,-0.508 -6.256,-1.524 -8.444,0.248c-8.485,6.871 -31.138,29.607 -42.465,40.975" style="fill:none;stroke:#000;stroke-width:5px;"/><path d="M897.252,2545.43c-2.306,0.182 -6.919,0.547 -7.698,-1.986c-2.649,-8.609 -6.347,-35.982 -8.196,-49.668" style="fill:none;stroke:#000;stroke-width:5px;"/><path d="M949.134,2426.72c24.787,8.932 19.809,85.844 -11.111,171.645c-30.919,85.801 -76.145,148.209 -100.933,139.277c-24.787,-8.933 -19.809,-85.844 11.11,-171.645c30.92,-85.802 76.146,-148.209 100.934,-139.277Z" style="fill:none;stroke:#000;stroke-width:5px;"/><path d="M924.656,2546.76c9.708,3.498 11.013,24.586 2.913,47.063c-8.099,22.477 -22.556,37.885 -32.264,34.387c-9.707,-3.498 -11.013,-24.586 -2.913,-47.063c8.1,-22.477 22.557,-37.885 32.264,-34.387Z" style="fill:none;stroke:#000;stroke-width:5px;"/><path d="M929.689,2520.81c12.84,4.627 13.384,35.802 1.214,69.574c-12.17,33.772 -32.475,57.434 -45.315,52.807c-12.841,-4.627 -13.385,-35.802 -1.214,-69.574c12.17,-33.772 32.475,-57.434 45.315,-52.807Z" style="fill:none;stroke:#000;stroke-width:5px;"/><path d="M929.689,2520.81c-3.417,-1.695 -10.251,-5.083 -9.342,-9.408c3.245,-15.433 28.807,-83.193 28.807,-83.193c0,0 -19.204,55.462 -28.807,83.193" style="fill:none;stroke:#000;stroke-width:5px;"/><path d="M928.072,2593.81c-2.032,6.228 -6.92,10.227 -10.908,8.926c-3.988,-1.301 -5.577,-7.414 -3.545,-13.642c2.033,-6.227 6.92,-10.227 10.909,-8.926c3.988,1.302 5.576,7.414 3.544,13.642Z" style="fill:none;stroke:#000;stroke-width:5px;"/><path d="M928.218,2593.36c-2.692,8.248 -9.486,13.441 -15.163,11.589c-5.677,-1.852 -8.1,-10.053 -5.409,-18.302c2.692,-8.249 9.486,-13.442 15.163,-11.589c5.677,1.852 8.1,10.053 5.409,18.302Z" style="fill:none;stroke:#000;stroke-width:5px;"/><path d="M958.683,2398.58c30.793,11.097 26.493,101.412 -9.596,201.559c-36.089,100.146 -90.388,172.444 -121.18,161.347c-30.793,-11.096 -26.493,-101.411 9.596,-201.558c36.089,-100.147 90.388,-172.444 121.18,-161.348Z" style="fill:none;stroke:#000;stroke-width:5px;"/><path d="M942.83,2362.25c49.086,17.688 55.642,124.444 14.631,238.249c-41.01,113.805 -114.157,191.839 -163.243,174.151c-49.086,-17.689 -55.643,-124.445 -14.632,-238.25c41.01,-113.805 114.158,-191.839 163.244,-174.15Z" style="fill:none;stroke:#000;stroke-width:5px;"/><path d="M113.735,2243.28c-1.479,0.626 -4.437,1.878 -5.331,3.802c-4.083,8.783 -14.137,35.524 -19.164,48.894" style="fill:none;stroke:#000;stroke-width:5px;"/><path d="M122.352,2174.74c-1.926,-0.414 -5.777,-1.242 -7.798,0.202c-7.837,5.597 -28.759,24.119 -39.221,33.381" style="fill:none;stroke:#000;stroke-width:5px;"/><path d="M147.103,2104.26c-2.307,0.182 -6.919,0.546 -7.699,-1.987c-2.649,-8.609 -6.346,-35.981 -8.195,-49.667" style="fill:none;stroke:#000;stroke-width:5px;"/><path d="M886.1,2225.01l202.059,-273.939" style="fill:none;stroke:#000;stroke-width:5px;"/><path d="M1184.38,1918.81c-91.691,130.178 -183.381,260.356 -275.072,390.534" style="fill:none;stroke:#000;stroke-width:5px;"/><path d="M434.397,2069.22l187.874,-776.943l131.736,40.419l-187.874,800.146l-131.736,-63.622Z" style="fill:none;stroke:#000;stroke-width:5px;"/><path d="M566.133,2132.84l30.689,-10.479l183.382,-779.188l0.625,-3.105" style="fill:none;stroke:#000;stroke-width:5px;"/><path d="M690.759,2227.93l-74.033,215.456" style="fill:none;stroke:#000;stroke-width:5px;"/><path d="M690.759,2227.93l105.164,-50.179l90.568,46.407" style="fill:none;stroke:#000;stroke-width:5px;"/><path d="M795.923,2177.75c-62.815,-31.347 -125.63,-62.694 -188.444,-94.042" style="fill:none;stroke:#000;stroke-width:5px;"/><path d="M779.03,2272.54l106.304,-45.559l-29.424,56.948l53.152,25.627l11.345,49.569" style="fill:none;stroke:#000;stroke-width:5px;"/><circle cx="415.836" cy="2154.28" r="7.786" style="fill:none;stroke:#000;stroke-width:5px;"/><circle cx="488.291" cy="2191.15" r="7.786" style="fill:none;stroke:#000;stroke-width:5px;"/><path d="M113.384,2245.23l3.565,-73.095l599.026,327.146l-12.48,81.118l-590.111,-335.169Z" style="fill:none;stroke:#000;stroke-width:5px;"/><path d="M116.949,2172.14l85.575,-194.327l575.849,294.165l-61.507,228.2" style="fill:none;stroke:#000;stroke-width:5px;"/><path d="M266.77,2010.63l-74.942,199.839" style="fill:none;stroke:#000;stroke-width:5px;"/><path d="M266.77,2010.63l115.981,-32.728l65.119,30.688" style="fill:none;stroke:#000;stroke-width:5px;"/><path d="M382.751,1977.9l-66.617,-32.934l-113.023,32.934" style="fill:none;stroke:#000;stroke-width:5px;"/><ellipse cx="861.591" cy="1873.1" rx="50.309" ry="51.435" style="fill:none;stroke:#000;stroke-width:5px;"/><ellipse cx="863.359" cy="1885.15" rx="51.435" ry="65.418" style="fill:none;stroke:#000;stroke-width:5px;"/><path d="M902.349,1927.8l5.372,261.62" style="fill:none;stroke:#000;stroke-width:5px;"/><path d="M826.604,1930.9l11.68,266.561" style="fill:none;stroke:#000;stroke-width:5px;"/><path d="M976.519,2399.47c103.237,-178.856 309.711,-536.569 309.711,-536.569l-11.343,-75.949c-0,0 -8.22,12.165 -12.33,18.248" style="fill:none;stroke:#000;stroke-width:5px;"/><path d="M754.469,1527.12c-0.216,1.254 -0.649,3.761 -0,5.187c0.648,1.427 2.55,2.767 3.89,3.372c1.263,0.57 3.188,0.363 4.15,0.259" style="fill:none;stroke:#000;stroke-width:5px;"/><path d="M322.437,1947.72c61.007,-58.952 122.014,-117.904 183.02,-176.856" style="fill:none;stroke:#000;stroke-width:5px;"/><path d="M1023.85,1135.23c17.915,3.096 53.744,9.289 53.744,9.289c0,-0 27.536,-109.147 30.522,-132.702c0.64,-5.051 -11.503,-3.655 -12.607,-8.625c-4.645,-20.901 -13.823,-94.329 -15.261,-116.778c-0.407,-6.355 5.4,-11.667 6.635,-17.914c3.76,-19.021 15.261,-79.068 15.924,-96.209c0.177,-4.551 -7.801,-4.741 -11.943,-6.635c-15.481,-7.077 -59.126,-26.245 -80.948,-35.829" style="fill:none;stroke:#000;stroke-width:5px;"/><path d="M198.081,1989.72l-0.481,1.075c0.891,-2.381 1.405,-3.743 1.405,-3.743l-0.924,2.668Z" style="fill:none;stroke:#000;stroke-width:5px;"/><path d="M152.336,2266.68c-36.201,50.654 -77.088,78.041 -108.268,66.805c-49.086,-17.689 -55.642,-124.445 -14.631,-238.25c41.01,-113.805 114.157,-191.839 163.243,-174.15c16.017,5.772 27.506,21.027 34.288,42.908l-9.064,9.832l-14.265,3.458l-86.018,192.354l-3.891,74.78l38.606,22.263Z" style="fill:none;stroke:#000;stroke-width:5px;"/><path d="M148.222,2264.31c-25.956,40.084 -52.3,62.557 -70.465,56.012c-30.792,-11.097 -26.492,-101.412 9.596,-201.559c36.089,-100.146 90.388,-172.444 121.181,-161.348c5.352,1.929 9.643,6.25 12.889,12.596l-3.519,3.817l-14.265,3.458l-86.018,192.354l-3.891,74.78l34.492,19.89Z" style="fill:none;stroke:#000;stroke-width:5px;"/><path d="M137.935,2258.38c-19.284,27.777 -37.963,42.796 -50.994,38.101c-24.787,-8.933 -19.809,-85.844 11.11,-171.645c30.919,-85.801 76.146,-148.209 100.933,-139.277c0.275,0.099 0.547,0.207 0.813,0.322l-82.176,183.761l-3.891,74.78l24.205,13.958Z" style="fill:none;stroke:#000;stroke-width:5px;"/><path d="M1274.86,1786.21c-9.456,-3.846 -18.913,-7.693 -28.369,-11.54" style="fill:none;stroke:#000;stroke-width:5px;"/><path d="M1032.62,893.118c1.376,1.784 4.127,5.35 4.261,8.523c0.474,11.206 -0.898,39.142 -1.42,58.711c-0.632,23.674 -2.525,59.185 -2.368,83.332c0.135,20.547 -1.815,45.296 3.315,61.552c4.54,14.389 19.821,28.786 27.461,35.984" style="fill:none;stroke:#000;stroke-width:5px;"/><path d="M630.478,2014.12c1.46,3.569 4.38,10.708 7.562,15.493c4.088,6.148 12.172,15.308 16.968,21.394c3.957,5.023 9.188,11.757 11.803,15.124" style="fill:none;stroke:#000;stroke-width:5px;"/><path d="M610.559,2073.33c3.43,1.445 10.292,4.336 14.939,7.377c5.072,3.32 11.22,8.607 15.493,12.542c3.681,3.39 7.989,8.507 10.143,11.066" style="fill:none;stroke:#000;stroke-width:5px;"/><path d="M607.423,2081.44c3.038,1.053 9.113,3.16 13.28,5.533c4.426,2.521 10.328,7.234 13.279,9.591" style="fill:none;stroke:#000;stroke-width:5px;"/><path d="M609.88,2066.88c9.8,3.934 29.399,11.801 40.332,17.887c9.143,5.089 19.366,13.095 25.268,18.628c4.317,4.047 7.039,13.187 10.144,14.57c3.105,1.384 9.343,-2.86 8.484,-6.27c-1.076,-4.273 -8.587,-14.255 -14.939,-19.366c-9.284,-7.47 -30.268,-19.458 -40.761,-25.452" style="fill:none;stroke:#000;stroke-width:5px;"/><path d="M613.217,2052.7c12.163,2.822 24.327,5.644 36.491,8.466" style="fill:none;stroke:#000;stroke-width:5px;"/><path d="M611.25,2061.06c7.37,1.339 22.109,4.017 29.741,5.447c5.356,1.004 12.482,2.425 16.045,3.135" style="fill:none;stroke:#000;stroke-width:5px;"/></g></svg>