<?xml version="1.0" encoding="UTF-8" standalone="no"?><!DOCTYPE svg PUBLIC "-//W3C//DTD SVG 1.1//EN" "http://www.w3.org/Graphics/SVG/1.1/DTD/svg11.dtd"><svg width="100%" height="100%" viewBox="0 0 1387 2396" version="1.1" xmlns="http://www.w3.org/2000/svg" xmlns:xlink="http://www.w3.org/1999/xlink" xml:space="preserve" xmlns:serif="http://www.serif.com/" style="fill-rule:evenodd;clip-rule:evenodd;stroke-linecap:round;stroke-linejoin:round;stroke-miterlimit:1.5;"><g><path d="M365.428,723.073l83.061,-76.042l192.446,56.154l-76.042,80.137l-199.465,-60.249Z" style="fill:none;stroke:#000;stroke-width:5px;"/><ellipse cx="511.956" cy="647.031" rx="9.652" ry="9.944" style="fill:none;stroke:#000;stroke-width:5px;"/><ellipse cx="614.32" cy="674.523" rx="9.652" ry="9.944" style="fill:none;stroke:#000;stroke-width:5px;"/><ellipse cx="344.729" cy="174.994" rx="11.958" ry="22.996" style="fill:none;stroke:#000;stroke-width:5px;"/><ellipse cx="352.548" cy="308.828" rx="9.658" ry="15.177" style="fill:none;stroke:#000;stroke-width:5px;"/><path d="M286.321,244.9c-6.211,-3.784 -18.632,-11.352 -22.996,-20.696c-5.979,-12.801 -13.107,-37.253 -12.877,-56.109c0.23,-18.856 10.654,-44.918 14.257,-57.029c1.642,-5.521 5.453,-12.265 7.359,-15.637" style="fill:none;stroke:#000;stroke-width:5px;"/><path d="M817.715,1880.55c95.688,-138.82 191.376,-277.641 287.065,-416.461" style="fill:none;stroke:#000;stroke-width:5px;"/><path d="M691.581,1819.65c95.325,-134.108 190.651,-268.216 285.977,-402.325" style="fill:none;stroke:#000;stroke-width:5px;"/><path d="M611.116,1691.34c80.465,-106.562 160.93,-213.123 241.395,-319.685" style="fill:none;stroke:#000;stroke-width:5px;"/><path d="M687.231,1377.1c13.411,-18.848 26.822,-37.696 40.233,-56.543" style="fill:none;stroke:#000;stroke-width:5px;"/><ellipse cx="763.856" cy="518.568" rx="11.259" ry="16.085" style="fill:none;stroke:#000;stroke-width:5px;"/><ellipse cx="858.756" cy="544.304" rx="11.259" ry="16.085" style="fill:none;stroke:#000;stroke-width:5px;"/><path d="M591.749,430.102l412.573,87.662l-412.573,-87.662Z" style="fill:none;stroke:#000;stroke-width:5px;"/><path d="M1304.66,375.217c7.772,1.296 15.544,2.591 23.316,3.886" style="fill:none;stroke:#000;stroke-width:5px;"/><path d="M620.487,239.679c182.332,37.817 364.664,75.634 546.997,113.451" style="fill:none;stroke:#000;stroke-width:5px;"/><path d="M30.271,681.328c196.288,-147.666 588.865,-442.999 588.865,-442.999c0,-0 -2.701,-42.319 -4.051,-63.479" style="fill:none;stroke:#000;stroke-width:5px;"/><path d="M1310.35,311.231c24.623,5.171 73.868,15.512 73.868,15.512c0,0 -92.088,95.044 -138.133,142.565" style="fill:none;stroke:#000;stroke-width:5px;"/><path d="M1384.21,326.743c-1.231,23.145 -3.693,69.436 -3.693,69.436c-0,0 -97.013,113.264 -145.52,169.896" style="fill:none;stroke:#000;stroke-width:5px;"/><path d="M1294,278.878c11.605,2.886 12.792,38.337 2.65,79.116c-10.141,40.779 -27.797,71.544 -39.401,68.657c-11.605,-2.886 -12.793,-38.336 -2.651,-79.116c10.142,-40.779 27.797,-71.543 39.402,-68.657Z" style="fill:none;stroke:#000;stroke-width:5px;"/><path d="M1282.56,261.654c22.359,5.561 30.073,52.05 17.215,103.751c-12.859,51.701 -41.451,89.161 -63.81,83.6c-22.359,-5.561 -30.073,-52.05 -17.215,-103.751c12.858,-51.701 41.45,-89.16 63.81,-83.6Z" style="fill:none;stroke:#000;stroke-width:5px;"/><path d="M1273.06,256.786c30.581,7.606 44.632,57.112 31.359,110.484c-13.274,53.372 -48.879,90.528 -79.46,82.923c-30.581,-7.606 -44.633,-57.112 -31.359,-110.484c13.274,-53.372 48.878,-90.528 79.46,-82.923Z" style="fill:none;stroke:#000;stroke-width:5px;"/><path d="M496.241,499.984l436.501,92.629l196.679,-200.485l-390.821,-81.21l-242.359,189.066Z" style="fill:none;stroke:#000;stroke-width:5px;"/><path d="M329.953,1651.55c59.348,-78.123 118.696,-156.247 178.043,-234.37" style="fill:none;stroke:#000;stroke-width:5px;"/><path d="M1183.7,1493.67c-159.586,-60.108 -319.172,-120.217 -478.759,-180.325" style="fill:none;stroke:#000;stroke-width:5px;"/><path d="M171.593,1681.73c123.893,-135.281 247.787,-270.563 371.68,-405.844" style="fill:none;stroke:#000;stroke-width:5px;"/><path d="M1193.93,1477.34c-161.93,-61.372 -323.86,-122.744 -485.789,-184.116" style="fill:none;stroke:#000;stroke-width:5px;"/><path d="M1216.21,1442.33c-166.171,-63.753 -332.341,-127.506 -498.512,-191.259" style="fill:none;stroke:#000;stroke-width:5px;"/><path d="M248.594,1729.04l132.474,-46.009" style="fill:none;stroke:#000;stroke-width:5px;"/><path d="M705.511,1946.4l111.849,-64.254" style="fill:none;stroke:#000;stroke-width:5px;"/><path d="M45.624,706.654c251.259,76.54 753.778,229.62 753.778,229.62c0,0 76.741,-16.831 98.581,-34.864c20.613,-17.02 15.988,-52.278 32.459,-73.334c38.871,-49.691 163.699,-177.124 200.767,-224.811c13.301,-17.111 21.64,-61.312 21.64,-61.312c-0,0 19.636,-263.281 38.47,-328.2c8.964,-30.897 74.536,-61.312 74.536,-61.312l-10.819,87.76" style="fill:none;stroke:#000;stroke-width:5px;"/><path d="M45.624,706.654c-5.328,-5.232 -15.985,-15.697 -16.809,-25.978c-1.681,-20.957 6.726,-99.765 6.726,-99.765l229.795,-160.296" style="fill:none;stroke:#000;stroke-width:5px;"/><path d="M265.336,420.615c7.778,-10.573 23.334,-31.719 25.782,-50.443c3.736,-28.584 1.307,-92.291 -3.363,-121.063c-3.053,-18.806 -22.996,-32.584 -24.661,-51.563c-1.868,-21.298 11.957,-52.125 13.451,-76.225c1.414,-22.798 -16.945,-49.235 -4.483,-68.378c12.89,-19.804 81.829,-50.443 81.829,-50.443c0,-0 42.596,228.487 59.41,275.754c4.716,13.257 29.019,14.389 41.476,7.847c33.441,-17.562 117.264,-81.331 159.175,-113.216" style="fill:none;stroke:#000;stroke-width:5px;"/><path d="M1176.99,291.538c-187.679,-39.551 -375.357,-79.102 -563.036,-118.653" style="fill:none;stroke:#000;stroke-width:5px;"/><path d="M1255.04,240.201c-0.714,5.346 -1.427,10.692 -2.14,16.038" style="fill:none;stroke:#000;stroke-width:5px;"/><path d="M1195.73,782.377c-9.813,-8.144 -29.439,-24.433 -32.445,-41.818c-4.446,-25.716 1.612,-75.167 5.768,-112.478c5.528,-49.629 27.398,-185.299 27.398,-185.299l-27.398,185.299c0,0 -175.445,178.811 -263.168,268.216" style="fill:none;stroke:#000;stroke-width:5px;"/><path d="M1195.73,782.377c16.526,-44.401 49.576,-133.205 56.003,-163.334c1.715,-8.041 -17.139,-9.224 -17.441,-17.441c-1.038,-28.238 7.129,-110.736 11.212,-151.986" style="fill:none;stroke:#000;stroke-width:5px;"/><path d="M638.681,890.511l127.432,38.384l-217.97,904.219l-126.231,-61.344l216.769,-881.259Z" style="fill:none;stroke:#000;stroke-width:5px;"/><path d="M548.143,1833.11c12.423,-14.426 37.268,-43.279 37.268,-43.279" style="fill:none;stroke:#000;stroke-width:5px;"/><path d="M585.411,1789.84l207.98,-853.561" style="fill:none;stroke:#000;stroke-width:5px;"/><path d="M928.484,2136.72c11.841,8.138 -2.293,60.809 -31.543,117.546c-29.25,56.737 -62.61,96.193 -74.451,88.055c-11.841,-8.139 2.293,-60.81 31.543,-117.547c29.25,-56.737 62.61,-96.193 74.451,-88.054Z" style="fill:none;stroke:#000;stroke-width:5px;"/><path d="M937.253,2117.94c17.106,11.757 3.483,74.666 -30.402,140.395c-33.886,65.729 -75.284,109.546 -92.39,97.789c-17.106,-11.757 -3.483,-74.666 30.402,-140.395c33.885,-65.729 75.284,-109.547 92.39,-97.789Z" style="fill:none;stroke:#000;stroke-width:5px;"/><path d="M924.057,2072.17c35.095,24.123 27.249,114.195 -17.51,201.016c-44.759,86.822 -109.591,137.726 -144.686,113.603c-35.096,-24.122 -27.25,-114.194 17.51,-201.015c44.759,-86.822 109.591,-137.726 144.686,-113.604Z" style="fill:none;stroke:#000;stroke-width:5px;"/><path d="M89.342,1932.99l-5.297,-59.595l78.134,-185.404l635.671,304.593l-67.54,215.863l-10.594,59.594l-630.374,-335.051Z" style="fill:none;stroke:#000;stroke-width:5px;"/><path d="M797.85,1992.59c33.875,-21.02 101.623,-63.06 101.623,-63.06l325.194,-499.404l51.736,17.949c-0,-0 -249.879,411.771 -374.818,617.657" style="fill:none;stroke:#000;stroke-width:5px;"/><path d="M720.93,2266.92c59.515,-112.463 119.029,-224.925 178.543,-337.388" style="fill:none;stroke:#000;stroke-width:5px;"/><path d="M835.972,2049.52c17.293,5.164 51.878,15.491 66.6,16.249c8.215,0.423 15.044,-11.422 21.73,-11.7c6.686,-0.279 14.4,4.298 18.387,10.029c5.943,8.543 9.512,53.952 17.272,41.231c55.875,-91.592 317.978,-590.785 317.978,-590.785c-0,0 -1.255,-42.67 -1.883,-64.005" style="fill:none;stroke:#000;stroke-width:5px;"/><path d="M84.045,1873.4c215.421,111.684 430.843,223.368 646.265,335.052" style="fill:none;stroke:#000;stroke-width:5px;"/><path d="M631.929,2157.45c23.875,-69.112 47.75,-138.223 71.626,-207.335" style="fill:none;stroke:#000;stroke-width:5px;"/><path d="M171.796,1918.89c25.294,-62.942 50.588,-125.885 75.883,-188.827" style="fill:none;stroke:#000;stroke-width:5px;"/><path d="M434.516,1706.58l-134.064,-64.618l134.064,64.618Z" style="fill:none;stroke:#000;stroke-width:5px;"/><path d="M300.452,1641.97l-138.767,45.863" style="fill:none;stroke:#000;stroke-width:5px;"/><path d="M904.913,1922.97l-310.462,-144.585l310.462,144.585Z" style="fill:none;stroke:#000;stroke-width:5px;"/><path d="M112.991,1945.34c-33.021,34.031 -66.6,48.29 -88.549,33.204c-35.095,-24.122 -27.249,-114.194 17.51,-201.016c44.76,-86.821 109.591,-137.725 144.687,-113.603c0.347,0.239 0.69,0.484 1.034,0.74l-18.016,20.135l-5.612,2.245l-79.126,186.312l5.05,59.485l23.022,12.498Z" style="fill:none;stroke:#000;stroke-width:5px;"/><path d="M128.394,1770.99l-43.475,102.367l5.05,59.485l13.781,7.481c-11.088,8.766 -20.498,11.821 -26.707,7.554c-17.106,-11.758 -3.484,-74.667 30.402,-140.396c6.767,-13.126 13.833,-25.378 20.949,-36.491Z" style="fill:none;stroke:#000;stroke-width:5px;"/><path d="M89.969,1932.84l2.714,1.473c-3.056,1.154 -5.634,1.122 -7.611,-0.237c-6.224,-4.278 -5.272,-20.857 1.278,-43.858l3.619,42.622Z" style="fill:none;stroke:#000;stroke-width:5px;"/><path d="M300.591,1640.5c73.316,-92.578 146.633,-185.155 219.949,-277.732" style="fill:none;stroke:#000;stroke-width:5px;"/></g></svg>