<?xml version="1.0" encoding="UTF-8" standalone="no"?><!DOCTYPE svg PUBLIC "-//W3C//DTD SVG 1.1//EN" "http://www.w3.org/Graphics/SVG/1.1/DTD/svg11.dtd"><svg width="100%" height="100%" viewBox="0 0 7143 10716" version="1.1" xmlns="http://www.w3.org/2000/svg" xmlns:xlink="http://www.w3.org/1999/xlink" xml:space="preserve" xmlns:serif="http://www.serif.com/" style="fill-rule:evenodd;clip-rule:evenodd;stroke-linejoin:round;stroke-miterlimit:2;"><g><path d="M3948.78,8616.88l-1067.04,-350.862l28.621,-4701.21l1069.31,-21.112l-30.888,5073.17l0,0.016Z" style="fill:#939393;"/><path d="M4229.74,8709.26l-1067.05,-350.862l28.625,-4701.21l1069.31,-21.108l-30.887,5073.17l-0,0.012Z" style="fill:#ebebeb;"/></g><path d="M4293.11,9125.68c-0,-199.221 -161.746,-360.967 -360.967,-360.967l-721.933,0c-199.221,0 -360.967,161.746 -360.967,360.967l0,963.85c0,199.221 161.746,360.962 360.967,360.962l721.933,0.001c199.221,-0.001 360.967,-161.742 360.967,-360.963l-0,-963.85Z" style="fill:#518c77;"/><g><rect x="323.404" y="9676.26" width="6269.92" height="295.75" style="fill:#787878;"/><path d="M6475.03,8497.55c0,-359.104 -291.545,-650.65 -650.65,-650.65l-4525,0c-359.104,0 -650.65,291.546 -650.65,650.65l0,1301.3c0,359.104 291.546,650.654 650.65,650.654l4525,0c359.105,0 650.65,-291.55 650.65,-650.654l0,-1301.3Z" style="fill:#559b81;"/><path d="M443.625,8756.34c0,-61.213 -49.696,-110.909 -110.908,-110.909l-221.813,0c-61.208,0 -110.904,49.696 -110.904,110.909l0,1848.44c0,61.213 49.696,110.909 110.904,110.909l221.813,-0c61.212,-0 110.908,-49.696 110.908,-110.909l0,-1848.44Z" style="fill:#939393;"/><path d="M564.171,8756.34c-0,-61.213 -49.696,-110.909 -110.908,-110.909l-221.813,0c-61.212,0 -110.908,49.696 -110.908,110.909l-0,1848.44c-0,61.213 49.696,110.909 110.908,110.909l221.813,-0c61.212,-0 110.908,-49.696 110.908,-110.909l-0,-1848.44Z" style="fill:#787878;"/><path d="M7034.32,8756.34c0,-61.213 -49.696,-110.909 -110.908,-110.909l-221.813,0c-61.208,0 -110.904,49.696 -110.904,110.909l0,1848.44c0,61.213 49.696,110.909 110.904,110.909l221.813,-0c61.212,-0 110.908,-49.696 110.908,-110.909l0,-1848.44Z" style="fill:#939393;"/><path d="M7142.36,8756.34c-0,-61.213 -49.696,-110.909 -110.908,-110.909l-221.813,0c-61.212,0 -110.908,49.696 -110.908,110.909l-0,1848.44c-0,61.213 49.696,110.909 110.908,110.909l221.813,-0c61.212,-0 110.908,-49.696 110.908,-110.909l-0,-1848.44Z" style="fill:#787878;"/></g><path d="M5997.18,1944.4c0,-571.096 -463.654,-1034.75 -1034.75,-1034.75l-2782.51,0c-571.091,0 -1034.75,463.654 -1034.75,1034.75l-0,2069.5c-0,571.096 463.654,1034.75 1034.75,1034.75l2782.51,-0c571.091,-0 1034.75,-463.654 1034.75,-1034.75l0,-2069.5Z" style="fill:#518c77;"/><g><path d="M5997.18,1944.4c0,-571.096 -463.654,-1034.75 -1034.75,-1034.75l-2782.5,0c-571.091,0 -1034.75,463.654 -1034.75,1034.75l0,2069.5c0,571.096 463.659,1034.75 1034.75,1034.75l2782.5,-0c571.096,-0 1034.75,-463.654 1034.75,-1034.75l0,-2069.5Z" style="fill:#559b81;"/><path d="M6499.11,1225.49c-0,-465.205 -377.688,-842.892 -842.892,-842.892l-4170.08,-0c-465.204,-0 -842.892,377.687 -842.892,842.892l0,1685.78c0,465.204 377.688,842.891 842.892,842.891l4170.08,0c465.204,0 842.892,-377.687 842.892,-842.891l-0,-1685.78Z" style="fill:#252525;"/><g><path d="M2997.05,3073.93c0,-114.258 -92.767,-207.025 -207.025,-207.025l-414.054,0c-114.258,0 -207.025,92.767 -207.025,207.025l-0,887.254c-0,114.263 92.767,207.025 207.025,207.025l414.054,0c114.258,0 207.025,-92.762 207.025,-207.025l0,-887.254Z" style="fill:#252525;"/><path d="M4973.42,3044.35c0,-114.258 -92.767,-207.025 -207.025,-207.025l-414.054,0c-114.258,0 -207.025,92.767 -207.025,207.025l-0,887.254c-0,114.263 92.767,207.025 207.025,207.025l414.054,0c114.258,0 207.025,-92.762 207.025,-207.025l0,-887.254Z" style="fill:#252525;"/></g><path d="M6222.48,1286.95c0,-421.25 -342,-763.254 -763.25,-763.254l-3776.09,0c-421.25,0 -763.25,342.004 -763.25,763.254l-0,1526.5c-0,421.25 342,763.254 763.25,763.254l3776.09,0c421.25,0 763.25,-342.004 763.25,-763.254l0,-1526.5Z" style="fill:#131313;"/><path d="M3862.18,79.529c-0,-43.891 -35.634,-79.529 -79.53,-79.529l-422.945,0c-43.896,0 -79.53,35.638 -79.53,79.529l0,159.063c0,43.896 35.634,79.533 79.53,79.533l422.945,0c43.896,0 79.53,-35.637 79.53,-79.533l-0,-159.063Z" style="fill:#252525;"/><path d="M3676.71,198.237c-0,-29.12 -23.642,-52.766 -52.763,-52.766l-105.529,-0c-29.121,-0 -52.763,23.646 -52.763,52.766l0,212.596c0,29.121 23.642,52.763 52.763,52.763l105.529,-0c29.121,-0 52.763,-23.642 52.763,-52.763l-0,-212.596Z" style="fill:#252525;"/><g><path d="M3478.91,4012.93c-0,-77.537 -62.946,-140.483 -140.48,-140.483l-1523.12,-0c-77.534,-0 -140.484,62.946 -140.484,140.483l0,280.963c0,77.533 62.95,140.479 140.484,140.479l1523.12,-0c77.534,-0 140.48,-62.946 140.48,-140.479l-0,-280.963Z" style="fill:#131313;"/><path d="M5467.53,4012.93c-0,-77.537 -62.946,-140.483 -140.484,-140.483l-1523.12,-0c-77.534,-0 -140.48,62.946 -140.48,140.483l0,280.963c0,77.533 62.946,140.479 140.48,140.479l1523.12,-0c77.538,-0 140.484,-62.946 140.484,-140.479l-0,-280.963Z" style="fill:#131313;"/></g><circle cx="3559.31" cy="159.063" r="70.917" style="fill:#131313;"/></g></svg>