<?xml version="1.0" encoding="UTF-8" standalone="no"?><!DOCTYPE svg PUBLIC "-//W3C//DTD SVG 1.1//EN" "http://www.w3.org/Graphics/SVG/1.1/DTD/svg11.dtd"><svg width="100%" height="100%" viewBox="0 0 3334 3334" version="1.1" xmlns="http://www.w3.org/2000/svg" xmlns:xlink="http://www.w3.org/1999/xlink" xml:space="preserve" xmlns:serif="http://www.serif.com/" style="fill-rule:evenodd;clip-rule:evenodd;stroke-linejoin:round;stroke-miterlimit:2;"><g><path d="M1757.29,2302.87l-256.09,-84.207l6.869,-1128.29l256.634,-5.067l-7.413,1217.56Z" style="fill:#939393;"/><path d="M1824.72,2325.04l-256.091,-84.207l6.87,-1128.29l256.634,-5.066l-7.413,1217.56Z" style="fill:#ebebeb;"/></g><g><path d="M1548.52,2424.98c-0,-47.813 -38.819,-86.632 -86.632,-86.632l-173.264,0c-47.813,0 -86.632,38.819 -86.632,86.632l0,231.324c0,47.813 38.819,86.631 86.632,86.631l173.264,0c47.813,0 86.632,-38.818 86.632,-86.631l-0,-231.324Z" style="fill:#518c77;"/><g><rect x="903.399" y="2557.12" width="1504.78" height="70.98" style="fill:#787878;"/><path d="M2482.41,2336.34c-0,-14.691 -11.927,-26.618 -26.618,-26.618l-53.235,0c-14.691,0 -26.617,11.927 -26.617,26.618l-0,443.626c-0,14.691 11.926,26.618 26.617,26.618l53.235,-0c14.691,-0 26.618,-11.927 26.618,-26.618l-0,-443.626Z" style="fill:#939393;"/><path d="M2379.79,2274.23c0,-86.185 -69.971,-156.156 -156.156,-156.156l-1086,-0c-86.185,-0 -156.156,69.971 -156.156,156.156l-0,312.313c-0,86.185 69.971,156.157 156.156,156.157l1086,-0c86.185,-0 156.156,-69.972 156.156,-156.157l0,-312.313Z" style="fill:#559b81;"/><path d="M932.252,2336.34c0,-14.691 -11.927,-26.618 -26.618,-26.618l-53.235,0c-14.69,0 -26.617,11.927 -26.617,26.618l-0,443.626c-0,14.691 11.927,26.618 26.617,26.618l53.235,-0c14.691,-0 26.618,-11.927 26.618,-26.618l0,-443.626Z" style="fill:#939393;"/><path d="M960.183,2336.34c-0,-14.691 -11.927,-26.618 -26.618,-26.618l-53.235,0c-14.691,0 -26.618,11.927 -26.618,26.618l0,443.626c0,14.691 11.927,26.618 26.618,26.618l53.235,-0c14.691,-0 26.618,-11.927 26.618,-26.618l-0,-443.626Z" style="fill:#787878;"/><path d="M2507.55,2336.34c-0,-14.691 -11.927,-26.618 -26.618,-26.618l-53.235,0c-14.691,0 -26.618,11.927 -26.618,26.618l0,443.626c0,14.691 11.927,26.618 26.618,26.618l53.235,-0c14.691,-0 26.618,-11.927 26.618,-26.618l-0,-443.626Z" style="fill:#787878;"/></g><path d="M2228.21,701.474c0,-137.063 -111.277,-248.34 -248.339,-248.34l-667.801,-0c-137.062,-0 -248.339,111.277 -248.339,248.34l-0,496.679c-0,137.063 111.277,248.34 248.339,248.34l667.801,-0c137.062,-0 248.339,-111.277 248.339,-248.34l0,-496.679Z" style="fill:#518c77;"/><g><path d="M2245.59,701.474c-0,-137.063 -111.277,-248.34 -248.34,-248.34l-667.8,-0c-137.062,-0 -248.34,111.277 -248.34,248.34l0,496.679c0,137.063 111.278,248.34 248.34,248.34l667.8,-0c137.063,-0 248.34,-111.277 248.34,-248.34l-0,-496.679Z" style="fill:#559b81;"/><path d="M2369.37,528.935c-0,-111.649 -90.645,-202.294 -202.294,-202.294l-1000.82,0c-111.649,0 -202.294,90.645 -202.294,202.294l0,404.587c0,111.649 90.645,202.294 202.294,202.294l1000.82,-0c111.649,-0 202.294,-90.645 202.294,-202.294l-0,-404.587Z" style="fill:#252525;"/><path d="M1523.79,972.561c-0,-27.422 -22.264,-49.686 -49.686,-49.686l-99.373,0c-27.422,0 -49.686,22.264 -49.686,49.686l0,212.941c0,27.423 22.264,49.686 49.686,49.686l99.373,0c27.422,0 49.686,-22.263 49.686,-49.686l-0,-212.941Z" style="fill:#252525;"/><path d="M1998.12,965.463c-0,-27.422 -22.264,-49.686 -49.686,-49.686l-99.373,0c-27.422,0 -49.686,22.264 -49.686,49.686l0,212.941c0,27.423 22.264,49.686 49.686,49.686l99.373,0c27.422,0 49.686,-22.263 49.686,-49.686l-0,-212.941Z" style="fill:#252525;"/><path d="M2300.47,543.687c0,-101.1 -82.08,-183.181 -183.18,-183.181l-906.261,0c-101.1,0 -183.18,82.081 -183.18,183.181l-0,366.36c-0,101.1 82.08,183.181 183.18,183.181l906.261,-0c101.1,-0 183.18,-82.081 183.18,-183.181l0,-366.36Z" style="fill:#131313;"/><path d="M1734,253.905c0,-10.534 -8.552,-19.087 -19.087,-19.087l-101.507,0c-10.535,0 -19.087,8.553 -19.087,19.087l-0,38.175c-0,10.535 8.552,19.088 19.087,19.088l101.507,-0c10.535,-0 19.087,-8.553 19.087,-19.088l0,-38.175Z" style="fill:#252525;"/><path d="M1689.48,282.395c-0,-6.989 -5.674,-12.664 -12.663,-12.664l-25.327,0c-6.989,0 -12.663,5.675 -12.663,12.664l0,51.023c0,6.989 5.674,12.663 12.663,12.663l25.327,0c6.989,0 12.663,-5.674 12.663,-12.663l-0,-51.023Z" style="fill:#252525;"/><path d="M1640.28,1197.92c0,-18.609 -15.107,-33.716 -33.715,-33.716l-365.548,-0c-18.608,-0 -33.716,15.107 -33.716,33.716l0,67.431c0,18.608 15.108,33.715 33.716,33.715l365.548,0c18.608,0 33.715,-15.107 33.715,-33.715l0,-67.431Z" style="fill:#131313;"/><path d="M2117.55,1197.92c-0,-18.609 -15.107,-33.716 -33.716,-33.716l-365.548,-0c-18.608,-0 -33.715,15.107 -33.715,33.716l-0,67.431c-0,18.608 15.107,33.715 33.715,33.715l365.548,0c18.609,0 33.716,-15.107 33.716,-33.715l-0,-67.431Z" style="fill:#131313;"/><circle cx="1664.15" cy="272.993" r="17.02" style="fill:#131313;"/></g></g></svg>